<?xml version="1.0" encoding="utf-8"?>
<!-- Generator: Adobe Illustrator 28.1.0, SVG Export Plug-In . SVG Version: 6.00 Build 0)  -->
<svg version="1.1" id="Layer_1" xmlns="http://www.w3.org/2000/svg" xmlns:xlink="http://www.w3.org/1999/xlink" x="0px" y="0px"
	 viewBox="0 0 371.2 370.3" style="enable-background:new 0 0 371.2 370.3;" xml:space="preserve">
<style type="text/css">
	.st0{fill:#E82528;}
	.st1{fill:#CAA575;}
</style>
<path class="st0" d="M328,17.6H44.2C24.8,17.6,9,33.4,9,52.8v266.6c0,19.4,15.8,35.2,35.2,35.2H328c19.4,0,35.2-15.8,35.2-35.2V52.8
	C363.2,33.4,347.5,17.6,328,17.6z"/>
<g>
	<path class="st1" d="M345.9,208.7V207c-0.8-0.7-1.7-0.9-2.8-0.8c-0.5,0.1-1,0.1-1.5,0.1c-0.1,0.1-0.3,0.2-0.4,0.1
		c-0.1-0.2,0.2-0.2,0.3-0.2c0.5-0.5,1.2-0.9,1.7-1.5c0.5-0.7,0.8-1.4,0.4-2.3c-0.4-0.9-1.1-1.8-2.1-2c-2.1-0.3-3.4-1.4-3.9-3.4
		c-0.2-0.6-0.7-1.1-1.4-1.2c-1.7-0.3-2.4,0.1-3.3,1.6c-0.3,0.5-0.4,1.1-0.9,1.4c-0.4-0.3-0.5-0.7-0.7-1c-0.9-1.4-2.2-1.7-3.6-0.7
		c-0.3,0.2-0.5,0.5-0.8,0.8c-0.9,1.2-2.1,2-3.7,2.4c-1.5,0.3-1.9,0.9-2,2.5c0,0.1-0.1,0.2-0.1,0.3c-0.1,0-0.2,0-0.3,0
		c-2.1-0.5-3.1,0.2-3.6,2.2c-0.2,0.9-0.1,1.7,0.1,2.5c0.3,1.3,0,2.4-0.6,3.5c-0.4,0.8-0.7,1.5-0.8,2.4c-0.3,1.8,0.8,3.2,2.7,3.3
		c0.5,0,0.9,0,1.4,0c0,0.4-0.2,0.4-0.4,0.5c-1,1-1.2,2.2-0.5,3.4c0.7,1.2,1.7,2,3.2,1.9c1.5-0.1,2.5,0.6,3.4,1.7
		c0.3,0.5,0.6,0.9,1,1.4c0.9,1.1,2.2,1.2,3.3,0.2c0.5-0.4,0.8-0.9,1-1.5c0.5-0.8,0.6-1.8,1-2.8c0.1,0.3,0.1,0.5,0.1,0.6
		c0.2,1,0.3,2,0.7,2.9c0.8,2,3,2.4,4.3,0.7c0.2-0.2,0.4-0.5,0.5-0.8c0.9-1.7,2-3.1,3.6-4.1c1.1-0.7,1.6-1.8,1.3-3.1
		c0.2,0,0.3-0.1,0.4-0.1c1.9,0.1,2.4-1.2,1.7-2.8c-0.2-0.5-0.4-1.1-0.6-1.6c-0.3-0.8-0.2-1.6,0.3-2.3
		C344.9,210.3,345.4,209.5,345.9,208.7z M332.6,199.7c0.1-0.3,0.3-0.6,0.6-0.9c1.4-1.5,2.6-1.5,3.8,0.2c0.7,0.9,1.3,1.8,2.6,2
		c0.7,0.1,1.3,0.6,1.8,1.2c0.7,0.8,0.7,1.7-0.1,2.5c-1.6,1.5-3.5,2.5-5.6,2.9c-0.8,0.2-1.5,0-1.8-0.8c0.4-0.6,1-0.6,1.6-0.8
		c0.3-0.1,0.7-0.2,1-0.5c0.2-0.2,0.2-0.4,0.1-0.6c-0.1-0.2-0.3-0.2-0.5-0.1c-0.6,0.2-1.1,0.6-1.7,1c-0.2,0.2-0.4,0.5-0.8,0.3
		c-0.2-1,0.5-1.6,0.9-2.3c0.4-0.8,1.6-0.8,2-1.9c-1.2,0.2-1.9,0.9-2.4,1.8c-0.3,0.5-0.6,1-0.9,1.5c-0.1,0.1-0.2,0.2-0.4,0.2
		c-0.2,0-0.3-0.2-0.3-0.4C331.9,203.2,332,201.5,332.6,199.7z M332.8,210.1L332.8,210.1c-0.2-0.2-0.6,0-0.8-0.4
		c-0.2-0.3-0.1-0.6,0.2-0.7c0.3-0.2,0.5,0.1,0.6,0.3C332.7,209.6,332.7,209.8,332.8,210.1C332.8,210.1,332.8,210.1,332.8,210.1
		C332.8,210.1,332.8,210.1,332.8,210.1c0.3,0,0.7-0.1,1,0c0.2,0.1,0.3,0.3,0.2,0.6c-0.1,0.2-0.3,0.3-0.5,0.2
		C332.9,211,332.7,210.7,332.8,210.1C332.8,210.1,332.8,210.1,332.8,210.1z M332.1,207.4c0.1-0.2,0.3-0.2,0.5-0.2
		c0.2,0,0.4,0.1,0.3,0.4c-0.1,0.2-0.2,0.3-0.4,0.2C332.3,207.8,332.1,207.7,332.1,207.4z M333.1,208.7c0-0.2,0.1-0.2,0.2-0.2
		c0.2,0.1,0.3,0.2,0.3,0.4c0,0.1-0.1,0.2-0.2,0.2C333.2,209,333.2,208.8,333.1,208.7z M333.5,211.9c-0.1,0-0.2,0-0.2,0.1
		C333.3,211.9,333.4,211.9,333.5,211.9c0.1,0,0.2,0.1,0.3,0.2C333.7,212,333.6,211.9,333.5,211.9z M333.4,212.7
		C333.4,212.7,333.4,212.7,333.4,212.7C333.4,212.7,333.4,212.7,333.4,212.7c0,0-0.1,0-0.1,0C333.3,212.7,333.3,212.7,333.4,212.7z
		 M334.1,213.1c0.4,0.1,0.8,0.3,0.8,0.7c0,0.4-0.2,0.6-0.5,0.6c-0.6,0.1-0.6-0.4-0.7-0.8C333.7,213.5,333.6,213.1,334.1,213.1z
		 M334.8,212c-0.3,0-0.5-0.1-0.5-0.4c0-0.2,0.1-0.5,0.4-0.5c0.3,0,0.3,0.3,0.4,0.4C335.1,211.9,335,212,334.8,212z M332,208.3
		c-0.1,0.2-0.2,0.3-0.3,0.3c-0.3,0.1-0.5,0-0.7-0.3c0-0.1,0-0.3,0-0.3c0.2-0.2,0.4-0.1,0.6,0C331.7,208.1,331.8,208.2,332,208.3z
		 M331.7,206.9c-0.2,0.4-0.5,0.3-0.8,0.4c-0.3,0-0.4-0.3-0.3-0.5c0.1-0.4,0.4-0.4,0.7-0.3C331.5,206.5,331.7,206.6,331.7,206.9z
		 M323.7,202.1c0.4-0.1,0.7-0.3,1.1-0.5c1-0.3,1.7-1,2.2-1.8c0.3-0.4,0.6-0.8,0.9-1.2c0.9-1,2-0.9,2.8,0.2c0.5,0.7,0.6,1.5,0.7,2.3
		c0,1.2-0.2,2.5,0,3.7c0.1,0.3,0.1,0.8-0.5,0.8c-0.5,0-0.7-0.3-0.7-0.7c-0.1-0.7-0.1-1.4,0.1-2.1c0.1-0.5,0.2-1-0.1-1.5
		c-0.1-0.2-0.2-0.3-0.3-0.2c-0.1,0-0.2,0.2-0.2,0.3c-0.2,0.3,0,0.6,0,0.9c0.2,1.1,0.2,2.2-0.1,3.4c-0.5-0.8-1-1.5-1.5-2.3
		c-0.3-0.5-0.7-0.9-1.2-1.2c-0.2-0.1-0.3,0-0.5,0.1c-0.1,0.1-0.1,0.3,0,0.4c0.4,0.4,0.7,0.8,1.2,1.1c0.7,0.5,1.1,1.3,1.4,2.1
		c0.2,0.3,0.2,0.6-0.2,0.8c-0.3,0.2-0.6,0.1-0.9-0.2c-0.3-0.3-0.5-0.7-0.7-1c-0.2-0.2-0.4-0.4-0.7-0.2c-0.3,0.2-0.1,0.5,0,0.7
		c0.3,0.4,0.7,0.6,1.1,0.9c0.2,0.1,0.3,0.3,0.2,0.5c-0.1,0.2-0.3,0.3-0.5,0.3c-0.4,0-0.7,0-1-0.3c-1-1-2-2-2.8-3.2
		c-0.2-0.4-0.4-0.8-0.5-1.2C322.9,202.7,323.1,202.2,323.7,202.1z M329.1,214.2c-0.3,0-0.4-0.3-0.5-0.6c0-0.2,0.2-0.3,0.4-0.3
		c0.3,0,0.5,0.1,0.6,0.4C329.6,214,329.5,214.3,329.1,214.2z M329.8,214.6c0.4,0,0.5,0.3,0.5,0.7c0,0.4-0.4,0.8-0.8,0.8
		c-0.3-0.1-0.5-0.1-0.6-0.5C328.9,215.3,329.5,214.6,329.8,214.6z M328,211.1c0,0.3-0.3,0.4-0.6,0.4c-0.4,0-0.7-0.1-0.7-0.6
		c0-0.3,0.1-0.5,0.5-0.6C327.5,210.3,328,210.7,328,211.1z M327.7,209.2c0-0.3,0.2-0.5,0.4-0.5c0.4,0,0.8,0.5,0.7,1.1
		c0,0.2-0.2,0.3-0.3,0.3C328.2,210.1,327.7,209.6,327.7,209.2z M327,212.8c0.3,0,0.6,0.2,0.6,0.6c0,0.3-0.2,0.5-0.5,0.5
		c-0.4,0-0.6-0.3-0.6-0.7C326.4,212.9,326.6,212.8,327,212.8z M327.8,214.4c0.3,0,0.5,0.2,0.5,0.5c0,0.2-0.2,0.5-0.4,0.5
		c-0.4,0-0.5-0.2-0.5-0.5C327.4,214.6,327.5,214.4,327.8,214.4z M328.2,212.8c-0.3,0-0.6-0.3-0.5-0.6c0.1-0.4,0.5-0.2,0.8-0.2
		c0.2,0,0.4,0.1,0.4,0.4C328.9,212.8,328.6,212.9,328.2,212.8z M329,211.5c-0.2,0-0.4-0.2-0.3-0.4c0.1-0.3,0.4-0.4,0.7-0.4
		c0.2,0,0.2,0.2,0.2,0.4C329.6,211.4,329.3,211.6,329,211.5z M328.7,207.7c0-0.3,0.3-0.5,0.6-0.5c0.2,0,0.4,0.1,0.4,0.3
		c0,0.4-0.3,0.4-0.6,0.4C329,207.9,328.7,208,328.7,207.7z M319.9,215.7c-2,0-3.1-1.4-2.3-3.2c0.9-1.9,1.4-3.8,1.3-5.9
		c0-0.4,0.1-0.8,0.4-1.2c0.4-0.6,0.9-0.8,1.5-0.5c0.3,0.1,0.6,0.3,0.8,0.5c1.4,1.3,2.7,2.6,4.3,3.8c-0.7,0.3-1.1-0.1-1.5-0.3
		c-0.4-0.2-0.8-0.5-1.3-0.6c-0.2,0-0.4,0.1-0.5,0.3c-0.1,0.3,0,0.5,0.3,0.6c0.2,0.1,0.4,0.1,0.6,0.2c0.4,0.1,0.7,0.1,1.1,0.2
		c0.4,0.2,1,0.2,0.9,0.8c-0.1,0.6-0.6,0.3-1,0.2c-0.7-0.2-1.4,0.2-2,0.2c0,0,0,0,0,0c-0.2,0-0.4,0-0.5,0.1c0,0,0,0,0,0
		c-0.6,0-1.2,0-1.8,0.1c-0.2,0-0.5,0.1-0.5,0.4c0,0.3,0.2,0.4,0.4,0.5c0.4,0.2,0.9,0.1,1.3,0c0.6-0.2,1.2-0.4,1.9-0.5
		c0.5-0.1,1.1-0.2,1.7,0c0.2,0.1,0.5,0.2,0.4,0.5c-0.1,0.2-0.2,0.4-0.4,0.4c-0.2,0-0.5,0-0.7,0c-0.3,0-0.6,0.1-0.9,0.3
		c-0.3,0.2-0.4,0.5-0.2,0.8c0.2,0.3,0.5,0.2,0.7,0.1c0.5-0.2,0.9-0.5,1.5-0.2c0,0.5-0.4,0.6-0.7,0.8c-1.1,0.6-2.3,1.1-3.5,1.5
		C320.6,215.7,320.2,215.7,319.9,215.7z M331,218.6c-0.2,1.3-0.4,2.6-0.7,3.8c0,0.1-0.1,0.2-0.1,0.3c-0.8,1.8-1.8,2.1-3.3,0.8
		c-0.4-0.3-0.8-0.7-1.2-1.1c-0.5-0.6-1.2-0.9-2-0.9c-1.2-0.1-2-0.7-2.5-1.8c-0.4-1.1-0.1-2.1,0.8-2.8c1-0.9,2.1-1.5,3.4-1.7
		c0.3,0,0.6-0.1,0.8,0.2c-0.5,0.6-1.1,0.9-1.9,1.1c-0.4,0.1-0.7,0.1-1,0.3c-0.2,0.2-0.4,0.4-0.2,0.7c0.1,0.2,0.4,0.2,0.6,0.2
		c0.5-0.1,1-0.3,1.4-0.7c0.4-0.4,1-0.6,1.5-0.7c0.6-0.2,0.9,0.1,0.7,0.7c-0.2,0.9-0.6,1.6-1.3,2.2c-0.2,0.2-0.5,0.4-0.7,0.7
		c-0.2,0.2-0.3,0.4-0.1,0.6c0.2,0.3,0.5,0.3,0.8,0.2c0.6-0.2,1-0.7,1.3-1.2c0.3-0.5,0.6-1,0.9-1.4c0.2-0.3,0.4-0.5,0.8-0.4
		c0.3,0.1,0.3,0.5,0.3,0.8c0,0.5-0.1,0.9-0.4,1.3c-0.2,0.3-0.3,0.7-0.2,1.1c0,0.2,0.1,0.4,0.3,0.4c0.2,0,0.4-0.1,0.5-0.3
		c0.2-0.8,0.5-1.5,0.7-2.3c0.1-0.4,0.2-0.8,0.6-1.1C331.1,217.8,331.1,218.2,331,218.6z M331,214.4c-0.3,0-0.5-0.2-0.5-0.6
		c0-0.3,0.1-0.5,0.4-0.5c0.3-0.1,0.5,0.2,0.5,0.4C331.4,214,331.4,214.4,331,214.4z M331.3,211.2c-0.3,0.2-0.3,0.6-0.3,1
		c0,0.4-0.2,0.6-0.5,0.7c-0.3,0.1-0.5,0-0.7-0.2c-0.2-0.3-0.2-0.6,0.1-0.8c0.7-0.6,0.3-1.4,0.4-2.1c0,0,0,0,0,0v0
		c-0.3,0-0.5,0-0.8-0.2c-0.2-0.2-0.3-0.5-0.1-0.8c0.1-0.2,0.2-0.2,0.4-0.2c0.3,0,0.5,0.2,0.5,0.5c0,0.2,0,0.5,0,0.7c0,0,0,0,0,0
		c0,0,0,0,0,0c0.3,0.2,0.7-0.5,0.9,0.1C331.4,210.2,332,210.6,331.3,211.2z M331.6,211.8c0-0.4,0.3-0.5,0.6-0.5
		c0.4,0,0.6,0.2,0.5,0.6c0,0.3-0.2,0.6-0.6,0.6C331.7,212.5,331.6,212.2,331.6,211.8z M331.9,214.2c0-0.4,0.3-0.5,0.6-0.6
		c0.3,0,0.5,0.2,0.5,0.5c0,0.3-0.2,0.5-0.5,0.5C332.1,214.7,331.9,214.5,331.9,214.2z M332.6,215.3c0.2,0,0.4,0.1,0.4,0.4
		c0,0.2-0.2,0.3-0.3,0.2c-0.2,0-0.4-0.1-0.4-0.4C332.3,215.4,332.4,215.3,332.6,215.3z M339.9,220.4c-0.4,0.4-0.9,0.7-1.3,1.1
		c-0.9,0.7-1.7,1.5-2,2.6c-0.5,1.4-1.8,1.4-2.6,0.2c-0.2-0.3-0.3-0.6-0.4-0.9c-0.4-1.3-0.8-2.6-1.2-3.8c-0.2-0.5-0.2-1-0.1-1.6
		c0-0.5,0.1-0.9,0.7-1c0.5-0.1,1.1,0,1.3,0.6c0.2,0.5,0.3,1,0.5,1.5c0.1,0.3,0.2,0.7,0.3,1c0.1,0.2,0.2,0.3,0.4,0.3
		c0.3,0,0.3-0.2,0.3-0.4c0-0.5-0.2-0.9-0.4-1.3c-0.3-0.6-0.5-1.2-0.6-1.9c1,0.2,1.5,0.9,2.1,1.3c0.3,0.2,0.5,0.4,0.8,0.5
		c0.2,0,0.4,0,0.5-0.2c0.1-0.2,0-0.4-0.2-0.5c-0.3-0.2-0.7-0.4-1-0.6c-0.5-0.3-1-0.6-1.5-1.1c-0.4-0.4-0.5-0.9-0.2-1.3
		c0.3-0.4,0.7-0.3,1.1-0.1c1.1,0.6,2.3,1.1,3.3,1.8C341.3,217.9,341.4,219,339.9,220.4z M343.2,209.8c-0.4,0.4-0.8,0.8-1,1.4
		c-0.4,0.7-0.4,1.5,0.1,2.2c0.3,0.5,0.6,0.9,0.7,1.5c0.1,0.6-0.1,0.8-0.7,0.9c-0.4,0-0.8,0-1.2-0.2c-1.6-0.5-3-1.3-4.5-2.2
		c-0.1-0.1-0.1-0.2-0.2-0.3c1.1-0.3,2.2,0.9,3.3-0.1c-0.4-0.4-0.8-0.4-1.2-0.5c-0.5,0-0.9,0-1.3-0.2c-0.3-0.1-0.5-0.2-0.5-0.5
		c0-0.3,0.2-0.5,0.4-0.7c0.6-0.2,1.2-0.4,1.8-0.4c0.4,0,0.9,0,1.3-0.2c0.3-0.2,0.5-0.4,0.4-0.7c-0.1-0.3-0.4-0.4-0.7-0.3
		c-0.7,0.1-1.2,0.3-1.8,0.6c-0.4,0.2-0.9,0.4-1.3,0.6c-0.3,0.1-0.7,0.1-0.9-0.2c-0.3-0.3-0.2-0.7,0-1c0.2-0.3,0.5-0.5,0.8-0.7
		c2.1-1,4.3-1.5,6.5-1.5c0.2,0,0.4,0,0.6,0.1c0.7,0.3,0.8,0.7,0.4,1.3C343.9,209.2,343.5,209.5,343.2,209.8z"/>
	<path class="st1" d="M176.8,99.9c1.7-0.3,3.1-1.3,4-2.8s1.7-3.2,2.1-5c0.4-1.7,0.4-3.4,0.9-5c0.2-0.9,0.1-1.7-0.5-2.4
		c-0.1,0-0.1-0.1-0.1-0.2c-7,1.4-13.3,2.9-18.7,4.4c0.5,1,0.7,2.2,1,3.2c0.4,1.6,0.9,3.1,1.8,4.5c0.9,1.5,2.2,2.6,3.9,3
		c0.7,0.1,1,0.4,1.1,1.1c0.3,1.4,0.9,2.7,1.6,3.9c2.3,4.3,5.9,7.3,9.9,9.8c2.8,1.7,5.7,3.2,8.6,4.6c0-0.8,0.1-1.7,0.1-2.5
		c-2.8-1.4-5.5-2.9-8-4.7c-0.8-0.5-1.5-1.1-2.2-1.8c-1.4-1.2-2.8-2.6-3.9-4.1c-1.1-1.5-1.9-3-2.3-4.7
		C175.8,100.4,175.9,100.1,176.8,99.9z"/>
	<path class="st1" d="M136.9,69.3c-0.6,0-0.9,0.2-1.1,0.8c-0.1,0.5-0.3,0.9-0.4,1.4c-0.2,1.1-0.5,2.1-0.9,3.1
		c-0.2,0.7-0.7,1.2-1.4,1.3c-0.2,0-0.5,0.2-0.7,0.2c-0.5,0.2-0.7,0.6-0.7,1.1c0.1,1,0.5,1.3,1.5,1.3c0.2,0,0.4,0,0.6,0
		c3.5-1.7,7.8-3.4,12.8-5.1c-1.1-0.5-2.2-1-3.2-1.6c-1.5-0.8-3.1-1.4-4.6-2.1C138.2,69.5,137.6,69.3,136.9,69.3z"/>
	<path class="st1" d="M138.2,181.9c-2.8-1.9-5.8-3.5-8.8-5.2c-3-1.7-5.8-3.7-7.7-6.7c-1-1.5-1.9-1.5-3.5-0.7
		c-0.5,0.2-0.8,0.4-1.4,0.1c-0.4-0.2-0.9-0.6-1.3-0.1c-0.4,0.4-0.2,1,0,1.5c0,0.1,0.1,0.2,0.1,0.3c0.4,0.7,0.6,1.4,0.6,2.2
		c0,2.1,1,3.5,2.6,4.7c3.8,2.9,7.9,5.2,12.4,6.8c1.9,0.7,3.8,1.6,5.8,2c0.2,0,0.5,0.1,0.5,0.4c0,0.2-0.3,0.4-0.6,0.3
		c-0.4,0-0.8,0-1.2-0.1c-2.5-0.5-4.8-1.3-7.1-2.2c-3.1-1.2-6.1-2.7-8.4-5.2c-0.2-0.2-0.4-0.4-0.7-0.5c-0.8-0.6-1.5-0.3-1.9,0.7
		c-0.8,2.3,0.8,6.6,3.1,7.6c3.1,1.4,6.3,2.1,9.6,2.3c2.1,0.2,4.2,0.4,6.2,1c0.9,0.2,1.8,0.6,2.8,0.9c0.7,0.2,1,0,0.9-0.8
		c0-0.2-0.1-0.3-0.1-0.5c-0.4-1.9-0.4-3.7,0.2-5.5c0.4-1.2,0.8-2.4,1.9-3c2.3-1.4,4.7-1.7,7.2-0.2c-0.5,0.1-0.9,0.1-1.3,0
		c-0.8-0.2-1.6-0.2-2.4-0.1c-1.6,0.1-2.8,0.7-3.7,2.1c-0.7,1-0.9,2-1,3.1c-0.3,2.5-0.2,5.1,1.6,7.1c3.1,3.4,6.9,5,11.5,4.6
		c0.9-0.1,1.3,0.2,1.8,0.8l1.1-0.9c-0.3-0.5-0.6-1-0.4-1.7c0.9-2,0.8-4.2,0.4-6.3c-0.7-3.5-2.3-6.3-5.8-7.7
		c-0.2-0.1-0.6-0.1-0.6-0.6c0.5,0.1,0.9,0.2,1.4,0.3c1.2,0.2,1.7-0.1,1.6-1.4c0-0.8-0.3-1.6-0.2-2.4c0.2-1.8,0.4-3.5,0.6-5.3
		c0.3-2.3,0.5-4.6,0.4-7c-0.1-3.8-2.9-6-5.3-6.8c-0.8-0.3-1.6-0.3-2.4-0.2c-1.4,0.2-1.8,0.8-1.4,2.1c0.8,2.7,1.6,5.3,2.4,8
		c0.8,2.8,1.4,5.7,1.1,8.7c0,0.3,0.1,0.7-0.3,0.7c-0.4,0-0.5-0.3-0.5-0.7c0-0.1,0-0.2,0-0.2c-0.3-1.8-0.6-3.6-0.9-5.4
		c-0.7-4.1-1.8-8-3.6-11.8c-0.9-2-2.4-3.3-4.7-3.6c-0.8-0.1-1.3-0.5-1.6-1.2c-0.2-0.3-0.3-0.7-0.5-1c-0.3-0.6-0.8-0.6-1.3,0
		c-0.2,0.2-0.3,0.5-0.2,0.8c0.1,0.8-0.2,1.3-0.7,1.8c-0.9,0.8-0.9,1.8-0.6,2.8c0.3,0.8,0.7,1.5,1.2,2.1c1.2,1.6,2.4,3.3,3.7,4.8
		c2.4,3,4.2,6.2,5.1,9.9c0.1,0.4,0.2,0.8,0.1,1.2c0,0.2-0.1,0.3-0.3,0.3c-0.2,0-0.3,0-0.4-0.1c-0.1-0.2-0.2-0.3-0.3-0.5
		c-0.6-1.6-1.3-3.2-1.9-4.9c-0.3-0.9-0.7-1.8-1.2-2.6c-2-3.2-4.2-6.3-6.7-9.2c-0.9-1.1-1.8-2.1-2.9-2.9c-0.9-0.6-1.8-0.8-2.7-0.2
		c-0.3,0.2-0.7,0.3-1,0.5c-1.2,0.7-2.4,0.6-3.5-0.3c-0.2-0.2-0.5-0.4-0.7-0.5c-0.6-0.2-1,0.1-0.8,0.7c0.1,0.4,0.3,0.8,0.5,1.2
		c0.3,0.6,0.2,1.2-0.2,1.8c-0.2,0.3-0.5,0.7-0.7,1c-0.9,1.3-1,2.7-0.3,4.1c0.4,0.9,0.9,1.7,1.5,2.5c1.2,1.5,2.5,2.7,4,3.9
		c2.3,1.8,4.7,3.2,7.2,4.7c1.6,1,3.3,1.8,4.8,3c0.3,0.2,0.7,0.4,0.5,0.8C138.9,182.5,138.5,182.1,138.2,181.9z"/>
	<path class="st1" d="M258.3,43.9c0.7,0.3,1.2,0,1.6-0.5c0.3-0.4,0.7-0.4,1-0.1c0.6,0.4,1.1,0.8,1.5,1.4c2.7,3.5,3.9,7.5,4.5,11.8
		c0.4,3,0.3,6,0.3,9.1v0c1.8,0.2,3.5,0.4,5.3,0.7c0-0.3,0-0.6,0.1-0.9c0.1,0.1,0.1,0.2,0.2,0.3c0,0.1,0.1,0.2,0.1,0.2
		c0,0.1,0,0.1,0.1,0.2c0,0.1,0,0.2,0,0.2c0.9,0.1,1.7,0.2,2.6,0.4c1.2,0.2,3.4,0.5,5.2,0.8c0.1-1.2,0.2-2.4,0.2-3.6
		c-0.1-1.9-0.3-3.8-1.3-5.5c-0.5-0.9-1.1-1.6-2.1-1.6c-0.8,0-1.1-0.4-1.4-1c-1.3-2.7-2.9-5.3-4.7-7.8c-1.8-2.4-3.7-4.7-6.2-6.4
		c-1.4-0.9-2.8-1.7-4.5-1.9c-0.6,0.1-1.2,0.1-1.8,0c-1.4,0.4-1.9,1.2-1.7,2.7C257.3,43.1,257.6,43.6,258.3,43.9z"/>
	<path class="st1" d="M135.2,284.7c0,1.5,0.4,2.9,1.6,3.9c0.5,0.4,1,1,1.5,1.4c1.1,1,2.4,1.7,3.8,2c1.3,0.3,2.8,0.3,3.7-0.8
		c0.9-1,2-1.7,2.8-2.8c0.2-0.4,0.6-0.7,0.9-0.9c1.9-1.4,2.7-3.3,2.4-5.6c-0.4-2.8-1.5-5.1-4.4-6.1c-0.9-0.3-1.1-0.5-0.8-1.5
		c0.4-1.4,0-2.9-1.5-3.4c-0.5-0.2-0.6-0.6-0.6-1.1c0-0.1,0-0.2,0-0.4l-3.4,0.8c0,0.1,0,0.2,0,0.3c0,0.3-0.1,0.5-0.4,0.7
		c-0.4,0.3-0.8,0.7-1.1,1.1c-0.8,1.1-0.7,1.8-0.2,2.8c0.1,0.3,0.5,0.4,0.5,0.8c-0.5,0.3-1.1,0.6-1.6,1.1
		C136.2,279.1,135.3,281.8,135.2,284.7z"/>
	<path class="st1" d="M131.4,50c-0.6,0-1.1,0-1.6,0.4c-0.9,0.6-0.9,1.2,0,1.8c1.8,1,2.6,2.7,3,4.6c0.2,1.4,0.5,2.8,0.7,4.2
		c0.6,3.1,2.1,5.7,5,7.2c3,1.7,6.1,3.4,9.3,4.7c0.1,0,0.2,0.1,0.3,0.1c4.9-1.6,10.4-3,16.5-4.4c-2.4-5.7-5-11.3-8.3-16.5
		c-1.5-2.4-3-4.6-5-6.5c-1.1-1-2.3-1.9-3.8-2.3c-2.2-0.7-4.2-0.1-6,1c-1.6,0.9-3,2.2-4.4,3.4c-0.9,0.8-1.8,1.8-3,2.1
		C133.2,50,132.3,49.9,131.4,50z"/>
	<path class="st1" d="M158.7,52.8c2,3.7,4.2,7.4,6,11.2c0.6,1.4,1.2,2.7,1.7,4.1c4.1-0.9,8.5-1.7,13.2-2.4c1-4.9,2-9.8,2.9-14.6
		c0.6-3.3,1.2-6.6,0.8-10c-0.6-4.5-2.4-6.9-6.5-7.6c-0.9-0.1-1.7-0.4-2.6-0.6c-1.4-0.4-2.4-1.3-2.8-2.8c-0.1-0.4-0.3-0.9-0.5-1.2
		c-0.5-0.9-1-1.1-1.9-0.8c-0.6,0.2-1.1,0.8-1.1,1.5c0,0.7,0.1,1.3,0.2,1.9c0.1,0.8,0,1-0.8,1.3c-0.8,0.3-1.7,0.5-2.5,0.8
		c-1.9,0.6-3.9,1.2-5.6,2.2c-3.7,2.1-4.7,4.7-4,8.8C155.8,47.6,157.3,50.2,158.7,52.8z"/>
	<path class="st1" d="M118.8,261.3c3.6-7.2,8.8-13,15.3-17.5c-5.8,1.6-12,2.8-18.3,3.3c-0.7,0.1-1.3,0.1-2,0.2c-1,0.9-1.7,2-2.3,3.3
		c-0.7,1.4-0.9,2.9,0,4.4c0.2,0.3,0.3,0.6,0,0.9c-0.5,0.5-0.7,1.3-1.1,1.9c-1.1,1.8-2.2,3.6-3.1,5.5c-0.5,1.2-1,2.4-1.2,3.7
		c-0.3,1.7-0.4,3.5,0.5,5.1c0.5,0.9,0.7,0.9,1.4,0.3c0.3-0.3,0.7-0.6,1-0.9c0.2-0.2,0.3-0.4,0.6-0.2c0.2,0.1,0.1,0.4,0.1,0.6
		c-0.6,2.5-0.3,5.1-0.4,7.6c0,1.5,0.2,3,0.5,4.4c0.7,3.3,1.8,6.4,4,9c1.1,1.3,2.2,2.6,3.8,3.4c0.3,0.2,0.6,0.3,0.9,0
		c0.3-0.3,0.4-0.6,0.3-1c-0.2-0.6-0.5-1.1-0.9-1.6c-1.6-2-2.6-4.3-3.2-6.8c-0.7-3.6-0.7-7.2-0.3-10.9
		C115,270.8,116.5,265.9,118.8,261.3z"/>
	<path class="st1" d="M182,61.2c-0.4,1.5-0.8,3-1.2,4.5c5-0.7,10.3-1.3,16-1.8c1.4-1.1,2.8-2.2,4.1-3.4c1.9-1.6,3.8-3.2,5.3-5.2
		c1.9-2.5,2.8-5,0.8-7.9c-0.3-0.5-0.5-1.1-0.7-1.7c-0.3-1-0.3-2,0.4-2.9c0.4-0.5,0.7-1.1,0.8-1.8c0.1-0.8-0.2-1.2-1-1.2
		c-0.6,0-1,0.1-1.2,0.8c-0.4,1.1-1.2,2-2.4,2.2c-1.5,0.2-2.9,0.2-4.2-0.5c-1-0.5-1.9-1.2-2.8-1.9c-1.4-1-2.8-2.2-4.5-2.5
		c-2.8-0.6-4.4,0-5.6,2.5c-0.4,0.8-0.7,1.7-0.9,2.6c-0.7,3-0.8,6-0.9,9c-0.1,2-0.3,3.9-0.9,5.9C182.6,59,182.3,60.1,182,61.2z"/>
	<path class="st1" d="M199.9,63.6c4.1-0.3,8.3-0.5,12.7-0.6c0-0.1,0-0.2,0-0.3c0-0.3,0-0.6,0-1c-0.2-2.1-1.7-3.3-3.8-3.3
		c-1.4,0-2.6,0.7-3.8,1.5C203.2,61,201.5,62.3,199.9,63.6z"/>
	<path class="st1" d="M215.3,268c-0.4-0.1-0.9-0.2-1.3-0.3c-0.3-0.1-0.6-0.1-0.7,0.2c-0.1,0.3,0.1,0.5,0.3,0.6c0.5,0.4,1,0.8,1.5,1
		c0.7,0.4,1.3,0.7,2,1.1c-0.2-0.8-0.5-1.6-0.7-2.4C216,268.2,215.7,268.1,215.3,268z"/>
	<path class="st1" d="M280.1,312.8c-1.1,0-2.1-0.3-3.1-0.5c-2.5-0.5-5-1.4-7.3-2.5c-2.3-1.1-4.5-2.3-6.4-4.1c-0.9-0.8-2-1.4-2.8-2.2
		c-1.1-1.1-2.1-2.2-3.2-3.3c-0.6-0.6-1.4-1.2-1.9-1.9c-0.7-1-1.6-1.8-2.2-2.8c-0.5-0.9-1.5-1.4-2-2.4c-0.7-1.4-1.7-2.6-2.6-3.9
		c-0.8-1.2-1.3-2.6-2.4-3.6c-0.7-1.9-2-3.5-2.8-5.3c-1.2-2.6-2.7-5.1-3.7-7.8c-0.2-0.6-0.7-1.1-0.9-1.7c-0.5-1.5-1.1-3.1-1.7-4.6
		c-1.6-4.5-2.9-9.1-4-13.8c-1.2-5.5-1.9-11.1-2-16.7c0-2.1,0.2-4.3,0.4-6.4c0.4-3.3,1.1-6.5,1.7-9.8c0.2-1.1,0.7-2.2,1-3.3
		c1.1-4,2.6-7.9,4.3-11.7c1.2-2.7,2.7-5.4,4.3-7.9c3.5-5.7,7.6-10.9,12.4-15.5c1.8-1.7,3.5-3.3,5.4-4.8c0.9-0.7,1.4-1.6,1.6-2.6
		c0.1-0.5,0.1-0.9-0.1-1.4c-0.7-1.3-2.3-2.1-3.5-1.7c-0.2,0.1-0.5,0.2-0.9,0c0.4-1.2,1.2-2.1,2.2-2.9c2.9-2.3,6.4-3.5,9.9-4.5
		c2.4-0.7,4.8-1.1,6.9-2.4c1.4-0.9,2.5-1.9,2.9-3.5c0.3-1.1,0-2.2-0.1-3.2c-0.1-1.4,0-1.7,1.2-2.3c1.3-0.7,2.8-0.9,4.3-1.1
		c2.2-0.3,4.3,0,6.2,1.4c0.9,0.7,1.8,1.3,2.7,1.8c1.5,0.9,3,0.2,3.3-1.5c0.1-0.3-0.1-0.7,0.2-1c4.3,1.3,7.2,4.1,9.2,8
		c0.7,1.2,1.3,2.5,2,3.8c0.5,1,1.3,1.6,2.4,1.9c2,0.6,2.8-0.7,2.7-2.3c0-0.6-0.6-1.3-1.2-1.4c-0.7-0.2-0.9,0.3-1.2,0.8
		c-0.3,0.5-0.6,0.6-1.1,0.1c-0.3-0.3-0.6-0.8-0.7-1.2c-0.3-0.9-0.7-1.8-0.9-2.8c-0.4-2.1-1.2-4-2.2-5.8c-1.3-2.4-3-4.6-5.1-6.5
		c-2-1.8-4.2-3.4-6.9-4.2c-0.6-0.2-0.6-0.6-0.4-1.1c0.1-0.3,0.3-0.6,0.5-0.8c0.3-0.5,0.2-1-0.2-1.5c-0.8-1-1.8-1.2-3-1.4
		c-1.3-0.1-1.6,0-2.5,0c-0.6,0.1-1.3,0.1-1.9,0.2c-2.5,0.4-4.9,1-7.3,1.7c-0.6,0.2-1.2,0.3-1.9,0.2c0.1-0.2,0.1-0.3,0.1-0.3
		c2.3-1.6,4.6-3.1,6.9-4.7c0.3-0.2,0.7-0.3,1-0.1c0.9,0.5,1.6,0.2,2.4-0.3c0.4-0.3,0.8-0.7,1.1-1c0.2,0.1,0.3,0.2,0.4,0.3
		c2.2,1.5,4.3,1.3,6.5,0.1c1.3-0.7,2.1-1.8,2.3-3.2c0.3-1.6,0.4-3.1,0.6-4.7c0.2-1.9-0.7-3-2.2-4c-1.5-0.9-3-1-4.7-1.2
		c-0.9-0.1-1.7,0.1-2.4,0.6c-2.3,1.6-3.7,3.8-3.6,6.7c0,0.3,0.1,0.6,0,0.9c-1.7,0.1-2.2,0.5-2.4,1.9c-0.1,0.3-0.1,0.6-0.1,0.8
		c0,0.2,0,0.4-0.2,0.5c-1.4,1.1-2.5,2.5-4.2,3.4c-0.6-1-1.5-1-2.5-0.7c-0.7,0.2-1.4,0.5-2,0.8c-2,1.1-4,2.3-5.8,3.8
		c-3.7,2.8-6.7,6.3-9.6,9.9c-7.8,9.9-14.5,20.7-20.1,32c-0.2,0.3-0.2,0.7-0.6,1c-0.1-1,0-2,0.1-2.9c-1.5,6.2-3.3,12.9-5.1,19.9
		c-6.2,23.2-5.3,47.6,2.3,69.8c0,0.1,0.1,0.1,0.1,0.2c2,5.1,4.2,10.1,6.7,14.9c2.2,4.1,4.6,8.1,7.4,11.9c3,4.1,6.6,7.8,10.5,11.1
		c2.4,2,5,3.6,7.8,5c5.2,2.6,10.8,3.9,16.6,3.5c2.6-0.2,5.1-0.7,7.4-1.9c2.2-1.2,3.9-2.9,4.6-5.3c0.6-2.1,0.6-4.3-0.2-6.4
		c-0.6-1.7-2.5-2.4-4-1.5c-0.8,0.5-1.1,1.2-0.9,2.1c0.2,0.9,0.7,1.2,1.6,0.9c0.9-0.3,1-0.2,1.2,0.6c0.1,0.5,0.3,0.9,0.2,1.4
		c-0.2,2.1-1.1,3.9-2.8,5.2c-2.5,1.9-5.5,2.7-8.5,3c0,0,0,0,0,0C282.5,312.8,281.3,312.8,280.1,312.8c1,0.3,2.1,0.3,3.1,0.1
		C282.1,313.1,281.1,313.1,280.1,312.8z M235.1,205.8c0.6-2.8,1.7-5.4,2.8-8.1c1.9-4.6,3.7-9.3,6.1-13.7c3.1-5.9,6.5-11.7,10.6-17.1
		c2.4-3.3,5.1-6.4,8.1-9.1c4.1-3.7,8.4-7.1,13.4-9.4c2.6-1.2,5.3-2,8.2-2.2c0.4,0,1,0,1.5-0.1c0.8,0,1.2,0,1.7,0
		c4.1,0.3,8,1.2,11.6,3.3c1.2,0.8,2.2,1,3,2l0,0c-1.2-0.4-2.3-1.1-3.4-1.7c-2.8-1.4-5.8-2.1-9-2.5c-1.3-0.1-2.3-0.1-3.5,0
		c-2.9,0.3-5.7,1-8.3,2.2c-3.7,1.7-7,4-10.2,6.5c-1.7,1.3-3.2,2.8-4.8,4.1c-1.4,1.2-2.6,2.5-3.9,3.8c-1.2,1.1-2.1,2.4-3.1,3.6
		c-1.8,2.3-3.6,4.6-5.1,7c-1.8,2.8-3.5,5.7-5.1,8.7c-1.4,2.7-3,5.4-4.2,8.2c-1.6,3.6-2.9,7.4-4.3,11c-0.6,1.5-1.2,3-1.8,4.6
		C234.9,206.4,235,206.1,235.1,205.8z"/>
	<path class="st1" d="M263.2,104.4c1.6-4.2,3-8.5,4.4-12.8c1.3-4,2.5-8.1,3.4-12.3c-2.2-0.1-4.4-0.2-6.6-0.3c-0.5,0.5-1.1,0.5-2,0
		c0,0-0.1,0-0.2-0.1c-1.1-0.5-1.6-0.5-2-0.1c-0.2,0.3-0.4,0.9-0.5,1.7c0,0,0,0.1,0,0.1c-0.2,1.5-0.3,3-0.5,4.5c-0.7,5-1.3,10-2.2,15
		c-0.9,4.9-2.1,9.6-4.1,14.2c-0.4,1-0.9,1.9-1.5,2.8c-0.7,4.7-1.5,10.1-2.7,16.4c0.4-0.7,0.8-1.3,1.1-2c2.9-5,5.8-10.1,8.4-15.3
		C260.2,112.3,261.7,108.4,263.2,104.4z"/>
	<path class="st1" d="M213.8,265.1c0,0.8,0.5,1,1.2,1.2c0.3,0.1,0.5,0.1,0.8,0.2c0.1,0.1,0.1,0.1,0.2,0.1c0.2,0.1,0.4,0.1,0.6,0
		c-0.2-0.1-0.4-0.2-0.6-0.1c-0.3-1.1-0.5-2.2-0.8-3.3c-0.1,0-0.2,0.1-0.3,0.1C214,263.6,213.7,264.1,213.8,265.1z"/>
	<path class="st1" d="M211.9,228.7l-3.2,1.2c-1.5,0.5-2.8,1.4-3.8,2.6c0,0,0,0,0,0c-0.4,0.4-0.7,0.8-0.9,1.3
		c-1.9,4.7-2,9.5-0.9,14.4c0.2,0.9,0.4,1,1.3,0.6c0.4-0.2,0.6-0.5,0.8-0.8c0.7-1,1.3-2,1.8-3.1c1-2.1,2.7-3.3,4.5-4.5
		c0.2-0.1,0.4-0.2,0.6-0.3C211.8,236.3,211.8,232.5,211.9,228.7z"/>
	<path class="st1" d="M212.7,258.3c-0.9,0.7-1.3,1.6-1.3,2.7c0,0.5,0.3,0.9,0.8,1.1c0.7,0.3,1.3,0.5,2.1,0.1
		c0.2-0.1,0.4-0.2,0.7-0.3c-0.3-1.5-0.6-3-0.9-4.4C213.5,257.7,213.1,258,212.7,258.3z"/>
	<path class="st1" d="M209.5,243.3c-1.7,1.8-2.9,3.9-3.7,6.2c-0.1,0.4-0.5,1,0.1,1.3c0.5,0.3,1-0.1,1.4-0.4c0.1,0,0.1-0.1,0.2-0.1
		c0.9-1.2,2.2-1.7,3.4-2.4c0.5-0.3,1.1-0.6,1.7-0.7c-0.2-1.8-0.3-3.6-0.4-5.4c-0.1,0-0.2,0-0.2,0.1
		C210.9,242.1,210.1,242.6,209.5,243.3z"/>
	<path class="st1" d="M209.9,250.4c-1,0.3-1.9,0.6-2.7,1.2c-0.6,0.5-0.6,0.6-0.1,1.2c1,1.3,2.3,1.9,3.9,1.6c0.8-0.1,1.6-0.3,2.4-0.5
		c-0.2-1.5-0.4-3-0.6-4.6c-0.1,0-0.1,0.1-0.2,0.1C211.7,249.9,210.8,250.1,209.9,250.4z"/>
	<path class="st1" d="M242.9,161.6c1.9-2.7,4-5.3,6.4-7.6c1.5-1.4,3.1-2.8,4.6-4.2c2-1.8,4.2-3.5,6.7-4.5c1.1-0.5,1.4-1.4,0.7-2.5
		c-0.2-0.4-0.6-0.7-0.9-0.9c-0.9-0.7-1.9-0.9-2.9-1.1c-1.2-0.2-1.4-0.6-1.1-1.8c0.2-0.8,0.7-1.6,1.1-2.3c1.8-3.1,4.1-5.8,6.6-8.3
		c2.4-2.6,5-5,7.2-7.8c2.7-3.5,4.7-7.3,6.7-11.2c0.6-1.2,1.2-2.5,1.5-3.8c0.3-1.7-0.7-3-2.3-3.2c-0.4-0.1-0.9-0.1-1.3-0.2
		c-0.9-0.2-0.9-0.3-0.8-1.1c0.3-1.9,1-3.7,1.6-5.4c1-2.7,2.1-5.3,3.1-8c0.8-2.2,1.5-4.4,1.7-6.8c0-0.2,0-0.5,0-0.8
		c-0.1,0-0.2,0-0.3,0c-1.3-0.1-4.5-0.4-6-0.5c-1.1-0.1-2.3-0.2-3.4-0.2c0,0.2-0.1,0.5-0.1,0.8c-0.4,2.2-0.8,4.4-1.3,6.5
		c-0.9,4.1-2.2,8-3.4,12c-1.5,4.5-2.9,9.1-4.9,13.4c-1.8,3.9-3.8,7.8-6,11.5c-2.8,4.7-5.4,9.5-8.1,14.2
		C246.6,144.8,244.9,152.7,242.9,161.6z"/>
	<path class="st1" d="M149.5,292.3c0.4-0.2,0.5,0.2,0.6,0.4c0.3,0.4,0.5,0.7,0.8,1.1c1.3,2,2.5,3.9,4.2,5.6
		c5.4,5.5,11.8,9.3,18.8,12.1c0.6,0.2,1.1,0.4,1.8,0.5c1.2,0.2,2.4,0.2,3.5-0.5c1.1-0.7,2.1-1.4,2.7-2.5c0.7-1.2,1.6-2.1,2.9-2.6
		c0.5-0.2,1-0.5,1-1.1c0-0.6-0.6-0.7-1.1-0.8c-0.9-0.3-1.2-0.8-1.1-1.7c0.1-1.1-0.5-1.9-1.5-2.4c-0.7-0.3-1.5-0.4-2.2-0.2
		c-1,0.3-1.9,0.6-2.8,1c-2.2,1-4.5,1-6.8,0.7c-3.7-0.5-7.1-1.8-10.4-3.5c-2.8-1.5-5.1-3.4-7-5.9c-0.3-0.4-0.6-0.9-0.8-1.4
		c-0.1-0.3,0-0.6,0.3-0.7c0.3-0.1,0.4,0.2,0.5,0.4c0.7,1.3,1.5,2.4,2.6,3.3c4.4,3.7,9.6,5.6,15.2,6.3c0.2,0,0.4,0,0.5,0
		c-0.2,0-0.3,0-0.5,0c0.3,0.3,0.7,0.2,1,0.1c0,0,0,0,0,0c1,0.1,2.1,0.1,3.1,0c0,0,0,0,0,0c0.3,0.1,0.5,0.1,0.8-0.1
		c-0.1,0-0.2,0-0.2,0c0.1,0,0.2,0,0.2,0c1.7-0.2,3.2-0.7,4.7-1.6c1.4-0.9,2.1-2.1,2.3-3.7c0.2-1.6-0.4-2.7-1.9-3.4
		c-1.2-0.5-2.4-0.5-3.6-0.3c-2.5,0.4-4.9,1.2-7.2,1.9c-1.2,0.4-2.4,0.9-3.8,0.9c-0.2,0.1-0.5,0.1-0.7,0.1c0.2,0,0.5-0.1,0.7-0.1
		c-1.4,0-2.8,0-4.1,0c0.8,0.2,1.6,0.3,2.4,0.2c-0.8,0-1.6,0-2.4-0.2c-4.4-0.6-7.5-2.9-9.2-7.1c-0.3-0.8-0.8-0.9-1.3-0.3
		c-0.5,0.6-0.8,1.3-1.3,1.9c-1.3,1.3-2.7,2.6-4.2,3.7c-1,0.7-2.1,0.9-3.2,0.8c-2-0.3-3.8-1.1-5.1-2.7c-0.5-0.6-1.1-1.1-1.7-1.6
		c-0.7-0.6-1.3-0.4-1.6,0.5c-0.1,0.2-0.2,0.4-0.2,0.6c0,1-0.6,1.6-1.2,2.2c-2.2,2.2-4.8,3.7-7.6,4.9c-5.1,2.1-10.3,3.6-15.9,3.3
		c-1.1-0.1-2.3-0.1-3.4-0.5c-1.7-0.6-4.5-0.2-5.3,2c-0.2,0.6-0.4,1.3-0.8,1.8c-0.6,0.7-0.7,1.4-0.3,2.2c0.1,0.2,0.1,0.5,0.1,0.7
		c0.6,2.8,1.9,4,4.8,4.3c0,0,0,0,0,0c0.2,0.2,0.5,0.2,0.8,0.1c-0.2-0.1-0.4-0.2-0.6-0.1c0.2,0,0.4,0,0.6,0.1
		c0.6,0.1,1.3-0.1,1.9-0.1c0,0,0.1,0,0.1,0c0,0-0.1,0-0.1,0c0.1,0.1,0.2,0.1,0.3,0c0,0,0,0,0,0c1.4,0,2.8-0.5,4.1-0.9
		c3.9-1.3,7.5-3.2,10.9-5.3c4.7-3,9.1-6.4,12.7-10.7c0.1-0.2,0.2-0.3,0.5-0.3c-0.5,1.2-1.3,2.1-2.2,3c-1.5,1.6-3,3.1-4.8,4.4
		c-1.8,1.3-3.6,2.8-5.4,4.1c-3,2.1-6.1,3.9-9.6,5c-2.5,0.8-5.1,1.6-7.5,2.6c-0.9,0.4-1.8,0.8-2.5,1.4c-1.3,1.1-1.5,2.6-0.5,4
		c0.3,0.4,0.4,0.8,0.6,1.2c0.3,0.9,0.1,1.7-0.6,2.4c-0.2,0.1-0.3,0.2-0.5,0.4c-0.2,0.2-0.5,0.5-0.3,0.8c0.2,0.3,0.5,0.2,0.8,0.2
		c0,0,0.1,0,0.1,0c1.2-0.2,2.3,0.2,3.2,1.1c0.8,0.8,1.8,1.3,3,1.4c0.1,0,0.2,0,0.3,0.1c-0.1-0.1-0.2-0.1-0.3-0.1
		c0.1,0.1,0.2,0.2,0.3,0.1c0,0,0,0,0,0c0.5,0.1,0.9,0.1,1.4-0.1c0.1,0,0.2,0,0.3-0.1c-0.1,0-0.2,0.1-0.3,0.1c0.1,0.1,0.2,0,0.3-0.1
		c1.4-0.3,2.4-1.2,3.5-2c0.5-0.4,1-0.8,1.8-1.1c-0.2,0.6-0.6,0.9-0.9,1.2c-0.4,0.5-0.9,0.9-1.3,1.4c-0.6,0.7-0.9,1.6-0.6,2.5
		c0.3,1.1,0.7,2.2,1.6,3c0.4,0.4,0.8,0.8,1.2,1.2c0.7,0.8,1,1.6,0.6,2.7c-0.1,0.2-0.2,0.6,0,0.8c0.3,0.2,0.6,0.1,0.9,0
		c0.2-0.1,0.5-0.3,0.7-0.5c0.8-0.6,1.6-1.1,2.6-1.4c0,0,0.1-0.1,0.1-0.1c0,0-0.1,0-0.1,0.1c0.1,0,0.2,0,0.3-0.1c-0.1,0-0.1,0-0.2,0
		c0,0,0.1,0,0.2,0c0.4,0,0.8,0,1.2,0.1c1.3,0.2,2.6,0.5,3.9,0.7c3.3,0.5,4.9-0.3,6.2-3.1c2.7-5.9,4.9-12,6.4-18.4
		c1.2-5.2,2.1-10.4,2.2-15.7c0-0.1,0-0.3,0.2-0.4c0.7,0,0.8,0.5,0.8,1.1c0.1,3.5-0.2,7-0.8,10.5c-1.2,6.3-2.8,12.5-6,18.1
		c-0.6,1.1-0.8,2.3-0.8,3.6c0.1,3,1.1,4.5,3.9,5.6c1.4,0.5,2.9,1,4.3,1.5c1.2,0.4,2.1,1.1,2.7,2.2c0.5,0.9,1.2,0.9,1.7,0
		c0.1-0.2,0.2-0.5,0.3-0.8c0.2-0.6,0.6-1.1,1.3-1.4c0.8-0.3,1.6-0.7,2.4-1.1c1.7-0.8,3.3-1.7,4.7-2.9c1.5-1.3,2.3-3,1.9-5
		c-0.4-1.9-1-3.7-1.8-5.4c-2.4-4.9-4.9-9.8-7.3-14.8c-1.6-3.3-2.8-6.7-3.6-10.3c-0.2-0.7-0.2-1.3,0-2.1c0.5,0.4,0.5,1,0.6,1.4
		c0.8,2.9,1.7,5.6,3,8.3c3.1,6.7,6.2,13.4,9.5,20.1c0.3,0.6,0.7,1.2,1,1.8c1.2,1.8,2.5,2.3,4.6,1.8c1.4-0.3,2.8-0.8,4-1.6
		c1.1-0.7,2.2-1.1,3.4-1.5c1-0.3,2-0.4,2.9,0.1c0.2,0.1,0.5,0.2,0.8,0.2c0.4,0,0.7-0.3,0.6-0.7c0-0.2-0.1-0.4-0.2-0.6
		c-0.7-1-0.6-2,0.1-3c0.6-0.8,0.8-1.8,0.6-2.8c-0.2-1.1-0.7-2.1-1.5-2.9c-0.8-0.8-1.7-1.5-2.6-2.2c-4.2-3.2-8.7-6-13.1-9
		c-4.1-2.7-7.5-6.1-10.1-10.3c-0.2-0.3-0.4-0.6-0.5-1C148.8,292.8,149.2,292.5,149.5,292.3z M136,293c0,0,0.1,0,0.1,0
		c0,0.2-0.1,0.3-0.3,0.3C135.9,293.2,135.9,293,136,293z M139,295.9c-2.2,4.1-4.9,7.8-7.6,11.5c-2.4,3.3-4.9,6.5-7.9,9.4
		c-0.7,0.7-1.4,1.5-2.3,1.9c-0.1,0.1-0.2,0.2-0.3,0.1c-0.1-0.1,0-0.2,0.1-0.2c1.2-1.5,2.5-3,3.7-4.5c4-4.8,7.7-9.9,10.9-15.3
		c1-1.8,2-3.6,2.7-5.5c0.1,0,0.2,0,0.2,0.1C139.7,294.5,139.8,294.5,139,295.9z"/>
	<path class="st1" d="M326.7,242.2c0-0.9,0-1.7,0-2.5c0-1.9-0.7-3.5-2.4-4.7c-0.3-0.2-0.6-0.4-0.6-0.8c0.1-1.4-0.8-2.3-1.6-3.3
		c-1.4-1.4-2.9-2.7-4.5-3.9c-1.3-1-2.4-2.1-2.5-3.9c-0.1-1.1-0.7-2-1.5-2.7c-0.7-0.6-1.4-1.2-2.3-1.6c-3.8-1.9-7.7-3.2-11.9-3.5
		c-0.2,0-0.3,0-0.5,0c0.2,0,0.3,0,0.5,0c-1.2-0.3-2.4-0.3-3.7,0c0,0,0,0,0,0c-1.1,0-2.2,0.2-3.4,0.5c-4,0.9-7.6,2.7-11,4.9
		c-1.3,0.9-1.9,0.8-2.9-0.5c-0.5-0.7-1.1-1-2-1c-0.8,0-1.6,0.1-2.4,0.4c-3.6,1.2-6.3,3.5-8.7,6.3c-2.9,3.2-5,7-7.1,10.8
		c-0.4,0.8-0.6,1.6-1,2.4c-0.3,0.6-0.7,0.9-1.3,0.7c-1.3-0.4-2.2,0.3-2.9,1.2c-0.6,0.7-1,1.6-1.3,2.5c-1.3,3.8-1.4,7.8-0.5,11.7
		c1.3,5.9,3.6,11.4,6.7,16.7c2.2,3.8,5,7.3,8.2,10.3c3,2.8,6.1,5.3,9.3,7.8c5.2,4.2,11.2,6.4,17.9,7c0,0,0,0,0,0
		c0.1,0.1,0.2,0.1,0.3,0c0,0,0,0,0,0c0.1,0,0.3,0,0.4,0c0,0,0,0,0,0c0.1,0.1,0.2,0.1,0.3,0.1c0,0-0.1-0.1-0.1-0.1c0,0,0.1,0,0.1,0.1
		c1.3,0.1,2.7,0.1,4,0c0,0,0.1,0,0.1-0.1c0,0-0.1,0-0.1,0.1c0.1,0.1,0.2,0,0.3-0.1c0,0,0,0,0,0c0.1,0,0.3,0,0.4,0c0,0,0.1,0,0.1,0
		c0,0-0.1,0-0.1,0c0.2,0.2,0.4,0.2,0.5,0c0,0,0,0,0,0c3-0.2,5.9-1,8.7-2c1.3-0.5,2.5-1.2,3.7-1.8c2.9-1.4,5.4-3.4,7.7-5.5
		c0.4-0.3,0.6-0.8,0.7-1.3c0.1-0.6-0.2-1.3-0.6-1.5c-0.5-0.1-0.9-0.1-1.4,0.4c-2.6,2.6-5.5,4.9-8.8,6.7c-3.1,1.7-6.4,2.8-10,3.1
		c0,0,0,0,0,0c-0.4,0-0.9-0.1-1.2,0.2c0.1,0,0.3,0,0.4,0.1c-0.1,0-0.3,0-0.4-0.1c-1,0-2.1,0-3.1,0c-0.1,0-0.2,0-0.3,0.1
		c0.1,0,0.2,0,0.3-0.1c-0.3-0.2-0.7-0.2-1-0.1c0,0,0,0,0,0c-1.2-0.1-2.5-0.3-3.7-0.5c-2.5-0.3-4.9-1.2-6.9-2.7
		c-3.6-2.7-6.1-6.4-7.8-10.5c-1.8-4.2-2.2-8.7-2.1-13.2c0-2.8,0.3-5.6,0.8-8.3c0.3-1.8,0.1-3.5-1.1-4.9c-1.2-1.5-2.7-2.3-4.6-2.6
		c-1-0.2-1.1-0.4-0.8-1.4c0.4-1.3,1.1-2.4,1.9-3.5c1.1-1.5,2.5-2.7,3.8-4c1.1-1.1,2.1-2.3,2.5-3.9c0.3-1.3,1.1-2,2.3-2.5
		c1.6-0.6,3.3-1,5.1-1c2,0,4,0.1,6-0.2c1.8-0.3,3.4-1,4.7-2.3c0.9-1,1.1-1,2.2-0.2c0.3,0.2,0.5,0.4,0.8,0.6c2.1,1.5,4.2,3,6.8,3.3
		c0.1,0,0.2,0,0.3,0.1c1,0.2,1.9,0.1,2.8,0c0,0,0,0,0,0c0.1,0.1,0.2,0.1,0.3,0.2c0,0,0,0,0,0c0.3,0.2,0.4,0.5,0.4,0.8
		c0,0.4,0,0.7,0,1.1c0,2.9,0.9,5.4,3.3,7.2c0.3,0.2,0.5,0.5,0.6,0.9c0.4,1.7,1.4,2.9,2.8,3.7c0.6,0.4,1.1,0.8,1.5,1.4
		c1.6,2.4,2.8,5,3.3,8c0.3,2.4-1.1,5.2-3.2,6.4c0,0,0,0,0,0c-0.1,0-0.2,0.1-0.3,0.2c0,0,0,0,0,0c-0.2,0-0.4,0-0.6,0
		c-0.1,0-0.1,0-0.2-0.1c0,0,0.1,0.1,0.2,0.1c-0.1-0.1-0.2-0.1-0.3-0.2c0,0,0,0,0,0c-0.4-0.3-0.1-0.5,0.2-0.7c0.6-0.5,1-1.3,1-2.1
		c0-1-1.3-2.2-2.3-2.4c-1.2-0.1-2.2,0.2-3,1.1c-0.8,1-1.1,2.1-1.1,3.4c0,1.7,0.7,2.6,2.4,3.2c0,0,0,0,0,0c0.1,0.2,0.3,0.2,0.5,0.1
		c0,0,0,0,0,0c0.6,0.1,1.2,0.1,1.9,0c0,0,0,0,0,0c0.1,0,0.2,0,0.3-0.1c-0.1,0-0.1,0-0.2,0.1c0.1,0,0.1,0,0.2-0.1
		c0.2,0,0.3,0.1,0.6,0c2.4-0.9,4.4-2.3,6-4.2c4.4-5.4,5.9-11.7,5.5-18.5C326.8,245.2,326.7,243.7,326.7,242.2z M307.3,237.3
		c0.1,0,0.1,0,0.2,0.1C307.5,237.4,307.4,237.4,307.3,237.3z M318.5,239.8c0-0.1,0-0.2,0-0.3c0,0,0,0,0,0v0c-0.5-0.5-0.7-1.2-1-1.8
		c-1.4-2.8-3.1-5.4-5.4-7.6c-3.7-3.5-8.1-5.6-13.2-6.1c-1.2-0.1-2.4-0.2-3.6-0.2c-0.2,0.1-0.4,0.2-0.7,0.2c0.2,0,0.4-0.1,0.7-0.2
		c-0.6,0-1.2-0.2-1.7,0.1c0,0,0,0,0,0c-6.6,0.5-12.3,3.1-17.6,6.9c-3,2.2-5.5,4.9-7.9,7.8c-2,2.5-3.5,5.2-4.9,8.1
		c-0.4,0.9-0.7,1.9-0.8,2.9c-0.5,4-0.3,8,0.3,12.1c0.3,1.6,0.7,3.2,1.1,4.7c0.2,0.6,0.5,1.3,0.8,1.9c1.2,2.4,2.3,4.9,3.7,7.2
		c0.9,1.4,1.7,2.8,2.4,4.3c0.4,0.8,1.2,1.4,1.4,2.5c-1-0.6-1.6-1.5-2.3-2.4c-1.8-2.2-3.5-4.5-4.9-7c-1.3-2.4-2.3-4.9-3.1-7.6
		c-1.2-4-1.7-8.1-1.5-12.3c0.1-3.4,0.8-6.6,2.2-9.7c5.4-11.3,14.3-18.2,26.3-21.2c1.7-0.4,3.4-0.6,5.2-0.7c0,0,0,0,0,0
		c0.1,0.1,0.2,0,0.3-0.1c0,0,0,0,0,0c5.1-0.1,10,0.8,14.1,3.9c4.4,3.3,7.9,7.4,9.8,12.6c0.2,0.5,0.5,1,0.3,1.6c0,0,0,0,0,0v0
		c0.1,0,0.2,0.1,0.2,0.2C318.6,239.7,318.5,239.7,318.5,239.8z M312.2,269.3c0.1,0,0.1,0,0.2,0C312.4,269.3,312.3,269.3,312.2,269.3
		z M316.2,267.1C316.2,267.1,316.2,267.1,316.2,267.1C316.2,267.1,316.2,267.1,316.2,267.1z"/>
	<path class="st1" d="M315.8,193c0.6-0.3,1.2-0.6,1.8-1c4-2.6,7.3-5.9,10.3-9.6c2-2.4,3.6-5,5-7.8c1.9-3.7,3-7.5,2.8-11.6
		c-0.1-2.2-0.6-4.2-2-6c-1.2-1.7-2.8-2.1-4.7-1.5c-0.5,0.2-0.8,0.5-1.1,0.9c-1.1,2-0.3,3.9,1.8,4.3c0.2,0,0.5,0.1,0.7,0.1
		c1.1,0.1,1.1,0.2,1.4,1.1c0.1,0.6,0.1,1.1,0,1.7c-0.2,1.1-0.5,2.1-1,3.1c-2.6,5.3-6.7,9.1-12.1,11.4c-4.5,1.9-9.3,1.9-14.1,1.6
		c-2.1-0.1-4.2-0.4-6.3-0.6c-1.8-0.2-3.6-0.5-5.4-0.7c-0.8-0.1-1.2-0.5-1.5-1.2c-0.2-0.6-0.5-1.2-0.9-1.7c-0.8-1.1-2-1.5-3.3-1.1
		c-0.9,0.2-1.7,0.6-2.5,1.1c-4.7,2.6-9,5.9-13.1,9.4c-2.3,2-4.4,4.1-6.2,6.4c-0.8,1-1.6,1.9-2.4,2.9c-0.4,0.5-0.8,0.8-1.6,0.5
		c-0.8-0.3-1.7-0.4-2.5-0.6c-0.7,0.1-1.3,0.1-2,0c-1.6,0.1-3,0.9-4.1,2c-0.8,0.9-1.5,2-2,3.2c-1,2.4-2.1,4.7-3.1,7.1
		c-2,4.4-3.6,8.8-4.9,13.4c-1.8,6.4-2.7,12.9-2.8,19.6c-0.1,6,0.4,11.9,1.4,17.8c0.9,5.2,1.9,10.5,3.9,15.4c0.6,1.6,1.3,3.1,2.4,4.5
		c0.3,0.4,0.6,0.7,1,0.8c0.7,0.2,1.2-0.4,1-1.1c-0.1-0.2-0.1-0.4-0.3-0.5c-1.2-1.4-1.7-3.1-2.3-4.7c-0.9-2-1.4-4.1-1.9-6.3
		c-1.1-5.6-1.4-11.3-0.7-17c0.9-7,3-13.6,6.3-19.8c2.1-4,4.8-7.6,8.2-10.6c2.6-2.3,5.4-4.3,8.7-5.6c2.2-0.9,4.5-1.4,6.8-1.4
		c0.9,0,1.9,0,2.8,0c1.2,0,1.4-0.1,1.7-1.3c0.1-0.5,0.1-0.9,0-1.3c-0.2-0.9-0.5-1.7-0.8-2.5c-0.7-1.9-0.7-1.9,0.8-3.2
		c5.4-4.8,11.8-7,18.9-7.4c3.1-0.2,6.2,0.3,9.2,1.2c2.2,0.6,4.4,1.1,6.6,1.6c1.1,0.2,1.5-0.1,1.5-1.2c0-0.9,0-1.8-0.1-2.7
		C315,193.6,315.2,193.3,315.8,193z M325.8,177.8c0,0.1-0.1,0.2-0.1,0.3c0,0,0.1,0,0.1-0.1c0,0-0.1,0-0.1,0.1c0,0,0,0,0,0
		c0,0,0,0,0,0C325.8,178,325.8,177.9,325.8,177.8C325.8,177.8,325.8,177.8,325.8,177.8z M308.4,184.2c-3,0.4-6,0.9-9,1.3
		c-2.7,0.4-5.3,0.7-8,1.3c-2.7,0.5-5.3,1.5-7.8,2.6c-5.9,2.7-11.1,6.3-16,10.4c-1.7,1.4-3.3,2.9-4.9,4.4c-1.2,1.2-2.4,2.4-3.5,3.7
		c-2,2.3-4,4.7-5.5,7.4c-1.9,3.3-3.7,6.7-5.3,10.1c-0.9,2-1.8,4.1-2.5,6.2c-0.3,0.8-0.2,1.7-0.8,2.6c0-1.5,0.3-2.8,0.7-4
		c1.3-4.2,3.2-8.1,5.3-11.9c2-3.6,4.4-7,7-10.2c2.1-2.6,4.4-5.1,6.9-7.3c4.9-4.4,10.2-8.4,16.1-11.3c3.4-1.7,6.9-2.9,10.6-3.5
		c1.7-0.3,3.4-0.8,5-1c2.9-0.3,5.8-1,8.8-1c0,0,0.1-0.1,0.1-0.1c0,0-0.1,0-0.1,0.1c0.1,0.1,0.2,0,0.3-0.1c0,0,0,0,0,0
		c3.9-0.2,7.8-0.9,11.6-1.7c1.1-0.5,2.4-0.7,3.5-1.2c1.5-0.7,2.8-1.5,4.1-2.5c0.2-0.2,0.4-0.3,0.6-0.3c0,0,0,0,0,0
		c-0.1,0.1-0.1,0.2-0.2,0.3c0,0,0,0,0,0.1c-0.1,0.1-0.2,0.2-0.3,0.4c-0.1,0.2-0.3,0.3-0.5,0.4c-0.6,0.5-1.2,0.9-1.9,1.2
		c-1.6,0.9-3.3,1.5-5.1,1.9C314.6,183.2,311.6,183.8,308.4,184.2z"/>
	<path class="st1" d="M282.8,89.3c0,0.1-0.1,0.1-0.1,0.2c-1.2,2-0.9,3.4,0.9,4.9c0.8,0.7,1.7,1.4,2.4,2.2c1.6,1.9,2.9,3.8,4,6
		c1.6,3.3,2.8,6.7,3.1,10.4c0.1,1.6,0.3,3.3-1,4.7c-0.6,0.6-0.3,1.2,0.5,1.3c0.7,0.1,1.3,0.3,2,0.3c1.6,0.1,3,0.8,4.2,1.8
		c0.6,0.5,1.1,1.1,1.2,1.9c0.2,1.1,0.3,2.1,0.2,3.2c-0.2,1.2-0.2,2.3-0.6,3.5c-0.3,0.8,0.1,1.1,0.9,0.8c1.6-0.5,3.3-0.4,4.9,0
		c3.6,1,5.8,3.5,7.2,6.7c0.8,1.7,1.3,3.6,1.9,5.4c0.5,1.3,0.9,2.6,1.7,3.8c0.9,1.3,2.1,2.2,3.7,2c1.6-0.2,2.6-1.3,3.3-2.7
		c0.2-0.6,0.3-1.2,0.3-1.9c0-0.6-0.2-1.1-0.3-1.7c-0.1-0.1-0.2-0.3,0-0.3c0.2,0,0.3,0.2,0.3,0.4c0.4,0.5,0.8,1,1.3,1.4
		c0.9,0.7,2.2,0.8,3,0c0.5-0.5,1-0.4,1.5-0.1c0.2,0.1,0.4,0.2,0.5,0.3c0.8,0.3,1,0.2,1-0.7c0-0.1,0-0.2,0-0.4
		c-0.5-1.2,0-2.1,0.6-3.1c0.5-0.8,0.8-1.7,0.7-2.7c-0.1-1.3-0.9-2.2-1.8-2.9c-1.1-1-2.4-1.8-3.8-2.4c-4.6-2.3-9.5-3.7-14.5-4.9
		c-2.7-0.6-5.4-1-8.2-0.5c-0.5,0.1-1,0-1.5,0c-0.2,0-0.5,0-0.5-0.4c0-0.3,0-0.6,0.3-0.7c0.2-0.1,0.5-0.1,0.7-0.1
		c3.9-0.3,7.8,0.1,11.6,1.3c4.8,1.5,9.5,3.3,14.4,4.6c0.9,0.2,1.7,0.5,2.6,0.6c2,0.2,3-0.3,3.2-2.2c0-0.2,0.1-0.3,0.1-0.5
		c0.2-0.9,0.6-1.5,1.6-1.6c0.3,0,0.6,0,0.7-0.4c0.1-0.4-0.2-0.6-0.5-0.7c-1.2-0.4-1.6-1.5-2-2.6c-0.3-0.8-0.5-1.7-0.6-2.6
		c-0.2-1.2-0.7-2.4-1.3-3.5c-0.6-1.1-1.6-1.6-2.8-1.6c-0.5,0-1,0-1.5,0.1c-1.6,0.3-3.2,0.6-4.9,1c-2.8,0.6-5.7,1.2-8.5,1.8
		c-4.2,0.9-8.5,1.8-12.4,3.5c-0.2,0.1-0.4,0.1-0.6,0c0.2-0.4,0.5-0.7,1-0.8c2-0.9,4-1.6,6.2-2.2c2.6-0.7,5.2-1.2,7.8-1.7
		c2-0.4,4-0.9,6-1.2c2-0.3,3.9-0.8,5.7-1.5c2-0.8,2.7-2,2.9-4.3c0.1-1.8-0.5-3.6-1-5.3c-0.3-1-0.4-2,0.3-3c0.4-0.5,0.2-1-0.5-1.2
		c-0.1,0.1-0.3,0.2-0.4,0.2c0.2,0,0.3-0.1,0.4-0.2c-0.3,0-0.5-0.1-0.8,0.2c0,0,0,0,0,0c-0.3,0-0.6,0-0.9,0c0,0-0.1,0-0.1,0
		c0,0,0.1,0,0.1,0c-0.1,0-0.2-0.1-0.3-0.1c0,0,0,0,0,0c-0.4-0.1-0.8-0.3-1.2-0.6c-1.1-0.7-2.2-1.3-3.3-2c-1.9-1.2-3.7-1.1-5.6,0.2
		c-0.9,0.6-1.6,1.5-2.1,2.5c-0.9,1.8-1.7,3.7-2.8,5.3c-2.3,3.3-4.8,6.5-7.6,9.3c-0.7,0.7-1.5,1.2-2.1,1.9c-0.7,0.7-1.7,1.2-2.5,1.9
		c-0.2,0.2-0.5,0.1-0.6-0.1c-0.2-0.2,0-0.4,0.1-0.5c0.7-0.6,1.4-1.1,2-1.7c2.7-2.6,5.2-5.3,7.5-8.2c3-3.9,5.7-8,7.8-12.4
		c1-2,0.7-3.1-0.8-4.7c-0.9-1-2-1.8-3-2.7c-0.7-0.6-1.1-1.3-1.2-2.3c-0.1-0.6-0.1-1.2-0.2-1.8c0-0.3-0.1-0.6-0.4-0.7
		c-0.3-0.1-0.4,0.1-0.6,0.4c-0.4,0.8-1.1,0.9-1.8,0.9c-0.6,0-1.2-0.1-1.8-0.1c-0.7,0-1.4,0.1-2,0.3c-1.1,0.3-1.7,1-1.8,2.2
		c-0.1,0.6-0.2,1.2-0.3,2.1c-0.5-1-0.3-1.8-0.4-2.6c-0.1-2.5-1.6-4.1-4-4.7c-1-0.2-1.8-0.6-2.3-1.5c-0.1-0.2-0.3-0.6-0.6-0.5
		c-0.3,0.1-0.3,0.4-0.4,0.7c-0.2,1.6-0.6,2.1-2.3,2.1c-1.2,0-2.2,0.8-2.3,2.3c0,0.4,0,0.9,0.1,1.3c0.2,1,0.5,1.9,0.9,2.8
		c0.9,2.4,2,4.7,2.6,7.2c1.2,4.6,1.4,9.3,1.1,14.1c-0.1,1.7-0.3,3.3-0.8,4.9c-0.1,0.2,0,0.5-0.4,0.5c0.3-1.8,0.6-3.5,0.7-5.3
		c0.1-2.7,0.1-5.4-0.3-8.1c-0.3-2.3-0.7-4.5-1.3-6.8c-0.2-0.8-0.6-1.6-0.8-2.4c-0.8-2.6-2-4.9-4.2-6.6c-1-0.8-2.2-1-3.3-0.6
		C284.6,87.3,283.1,87.6,282.8,89.3z M322.6,140.8C322.6,140.8,322.6,140.8,322.6,140.8C322.6,140.8,322.6,140.8,322.6,140.8
		C322.7,140.8,322.7,140.8,322.6,140.8C322.7,140.8,322.6,140.8,322.6,140.8z M302.8,128.2c1-0.1,2.1-0.1,3.1,0
		c3.6,0.4,6.7,2.2,9.6,4.3c2.1,1.4,3.9,3.1,5.5,5.1c0.3,0.4,0.7,0.8,0.6,1.4c0.3,0.1,0.4,0.4,0.5,0.7c0,0,0,0,0,0v0
		c0,0,0.1,0,0.1,0.1c0,0,0,0,0,0c0.1,0.1,0.1,0.2,0.1,0.4c0,0,0.1,0,0.1,0.1c0,0,0,0.1,0.1,0.1c0,0,0,0.1,0,0.1c0,0.1,0,0.1,0,0.2
		c0,0,0,0,0,0c0,0,0,0,0,0l0,0c0,0,0,0,0,0c0,0,0,0,0,0c0,0,0,0,0,0c-0.2-0.1-0.2-0.3-0.2-0.5c-0.2-0.1-0.3-0.3-0.2-0.5h0
		c0,0,0,0,0,0c-0.3-0.1-0.5-0.4-0.5-0.7c-0.4-0.2-0.7-0.7-1-1c-3.9-4.2-8.4-7.2-13.9-8.8c-1.2-0.3-2.5-0.5-3.8-0.2
		c-0.2,0.1-0.6,0.2-0.7-0.1C302,128.4,302.4,128.2,302.8,128.2z M297.9,115.6c1.2-2.2,1.9-4.5,2.6-6.9c1.2-4.3,2.2-8.6,3-13
		c0-0.3,0-0.6,0.5-0.9c-0.1,2.1,0,4.1-0.6,6.1c-0.4,1.2-0.6,2.5-0.8,3.7c-0.8,4.5-2.2,8.8-3.9,13c-0.4,1.1-0.5,1-1.9,0.7
		C297.1,117.4,297.4,116.5,297.9,115.6z"/>
	<path class="st1" d="M70.3,195.2c2.5-1,4.4-2.8,5.7-5.2c1.6-3.1,1.9-6.4,1.6-9.8c-0.4-4-1.7-7.8-3.5-11.4c-0.4-0.8-0.8-1.5-1.4-2.1
		c-0.4-0.4-0.9-0.7-1.5-0.8c-4.1-0.2-7.9,0.7-11.4,3.1c-1.5,1.1-2.9,2.4-4,3.9c-0.4,0.5-0.7,0.6-1.3,0.3c-0.6-0.4-1.3-0.7-1.9-1
		c-2-1-4.1-2.2-6.3-2.7c-1.5-0.3-2.3,0-2.8,1.5c-0.3,0.9-0.5,1.9-0.6,3c-0.1,2.4,0,4.8,0,7.2c0,0.8-0.1,0.9-0.9,0.8
		c-0.1,0-0.2,0-0.3,0c3.5,8.9,8.9,18,17.2,25.4c1.1-1.1,2-2.3,2.8-3.7c0.1-0.2,0.3-0.4,0.4-0.6c0.1,2.2-0.2,4.3-0.9,6.1
		c1.3,1,2.6,2.1,4,3c1.5-2.3,2.6-4.8,3.4-7.5c0.8-2.6,0.9-5.3,0.7-8C69.3,195.6,69.3,195.6,70.3,195.2z M69.3,185.4
		c-0.4,0.7-1.1,1-1.8,1.4c0.3-1.9,0.5-3.7,0.1-5.6c-0.3-1.2-0.7-2.2-1.4-3.2c-0.3-0.5-0.2-0.9,0.1-1.3c0.5-0.6,1-1.1,1.7-1.5
		c0.4-0.3,0.8-0.2,1.1,0.1c0.5,0.5,0.9,1,1.1,1.7C71.3,179.9,71,182.7,69.3,185.4z"/>
	<path class="st1" d="M100.3,279.9c-0.3-1-0.7-2.1-1-3.1c-0.2-0.5-0.2-1,0.4-1.2c0.9-0.3,1.4-1,2.1-1.6c2.7-2.4,3.6-5.9,1.7-9.3
		c-1.9-3.4-5.9-5.5-10.3-5c-1.6,0.2-2.8,1-3.6,2.4c-0.1,0.2-0.2,0.4-0.5,0.3c0-0.8,0.3-1.4,0.7-2c0.4-0.6,0.7-1.2,0.8-1.9
		c0.7-3,0-5.6-2-7.9c-1.6-1.9-3.7-2.4-6-1.8c-3.3,0.9-5.6,3-7.2,5.9c-0.6,1.1-0.6,1.1-1.8,1h-1.4c0.5,0,0.9,0,1.4,0
		c-1-0.3-2-0.3-3,0h0c-4.1,0.7-6.6,3.3-7.9,7c-1.5,4.4,0.4,7.8,3.6,10.6c-4.8,4-3.9,9.4,0.3,11.7c-0.2,0.6-0.5,1.2-0.7,1.9
		c-0.9,3.4,0.8,6.6,4.2,7.7c0.5,0.1,0.9,0.2,1.4,0.1c1.8-0.3,3.5-0.8,4.8-2.1c0.3-0.3,0.6-0.4,1.1-0.2c1.2,0.5,2.4,0.6,3.7,0.6
		c2.7-0.2,4.6-1.5,5.8-3.9c0.2-0.3,0.2-0.7,0.5-1c0.5,0.3,1,0.5,1.5,0.8c1.7,0.9,3.5,1.4,5.5,0.9c3.2-0.9,5.4-2.7,6.2-6
		C100.9,282.4,100.7,281.2,100.3,279.9z M73,289.4c-0.4,0.9-1.3,1.6-2.2,1.5c-0.8-0.1-1.5-0.7-1.8-1.8c0-0.2-0.1-0.4-0.1-0.6
		c-0.2-0.9-0.1-1.8,0.7-2.2c0.8-0.5,1.7-0.6,2.5-0.2c0.8,0.5,1.1,1.2,1.1,2.2C73.3,288.6,73.2,289,73,289.4z M82.4,286.7
		c0,1.1-0.5,1.9-1.3,2.3c-0.5,0.2-1,0.2-1.5-0.2c-1-0.8-1.3-3,0.2-4c0.9-0.6,1.8-0.4,2.3,0.6C82.3,285.8,82.5,286.3,82.4,286.7z
		 M95.4,283c-0.7,0.7-1.5,1.1-2.4,1.1c-0.9,0-1.8-0.3-2.5-0.9c-1.2-1-1.3-2.4-0.4-3.5c0.6-0.7,1.5-0.8,2.3-0.9c1.5-0.2,3,1,3.3,2.4
		C95.9,281.9,95.9,282.5,95.4,283z M98.5,271.1c-0.3,1-0.9,1.7-2,1.9c0,0,0,0,0,0c-0.1,0-0.2,0.1-0.3,0.1c0.1,0,0.1,0,0.2,0
		c-0.1,0-0.1,0-0.2,0c-0.5,0-0.9,0-1.4,0c0,0,0,0,0,0c-0.2-0.2-0.5-0.2-0.8-0.2c0.2,0.2,0.4,0.2,0.6,0.2c-0.2,0.1-0.5,0-0.6-0.2
		c-1-0.2-1.9-0.6-2.6-1.1c-1.9-1.4-1.9-3.5-0.1-5c0.6-0.5,1.1-0.9,1.8-1.1c1.7-0.6,3.1-0.1,4.3,1C98.7,267.9,99,269.4,98.5,271.1z"
		/>
	<path class="st1" d="M216.5,316.1c-1.2-1.4-2.1-2.9-2.8-4.5c-0.6-1.3-1.3-2.5-2.5-3.4c-0.5-0.4-0.5-0.8-0.3-1.3
		c1-2.9,2.4-5.3,4.8-7.3c3-2.5,6.4-4,10.3-3.8c0.6,0,1.1,0.1,1.7,0.2c-0.5-0.9-1-1.8-1.5-2.6c-4.7-0.3-8.8,1.2-12.5,4.8
		c-1.6,1.5-2.7,3.3-4,5c-0.3,0.4-0.7,0.8-1.2,1c-3.2,1.4-6.4,1.5-9.5-0.1c-2.4-1.2-3.6-3.4-4.4-5.9c-0.1-0.4,0-1.2-0.7-1.1
		c-0.6,0.1-0.5,0.7-0.6,1.2c-0.6,3.8-0.1,7.5,1.3,11c0.2,0.5,0.5,1,0.6,1.7c-2.1,0.4-4.2,0.4-6.3,0.2c-1-0.1-1.9-0.4-2.7-1.1
		c-0.6-0.5-1-1.2-1.3-1.8c-0.2-0.5-0.4-0.4-0.7-0.1c-0.2,0.2-0.3,0.5-0.3,0.9c0,0.9,0.1,1.8,0.4,2.6c1.1,2.3,2.3,4.6,4.2,6.5
		c-1.6,1.1-3.2,2.2-4.4,3.6c-1.2,1.4-2.5,2.2-4.4,1.9c-0.3,0-0.8-0.2-1,0.2c-0.2,0.4,0.1,0.8,0.4,1.1c0.2,0.3,0.6,0.4,0.9,0.6
		c0.6,0.2,1.2,0.3,1.8,0.3c1,0.1,2,0.1,2.9,0.6c0.8,0.5,0.9,1.1,0.4,1.8c-0.2,0.3-0.5,0.5-0.8,0.8c-0.8,0.7-1.7,1.3-2.6,2
		c-0.6,0.5-1.1,0.9-1.5,1.5c-0.4,0.7-0.4,0.9,0.3,1.4c1.3,1.1,2.8,2.1,4.5,2.5c0.7,0.2,0.9,0.5,0.9,1.2c-0.1,1.4-0.6,2.8-1.2,4
		c-0.7,1.5-1.6,3-2.5,4.4c-0.2,0.3-0.7,0.7-0.3,1.1c0.4,0.5,0.8,0,1.2-0.1c0.3-0.1,0.6-0.2,0.9-0.4c2.4-1.2,4.6-2.7,6-5.1
		c0.3-0.4,0.5-1.1,1-1.2c0.5-0.1,0.8,0.5,1.2,0.7c1,0.6,2,1,3.2,0.6c1.1-0.3,1.3-0.7,0.9-1.8c-0.2-0.6-0.4-1.2-0.5-1.8
		c-0.2-0.7-0.1-1.5,0.2-2.1c0.5-1.1,1-1.3,2.1-0.6c1,0.7,1.7,1.5,2,2.8c0.3,1,0.5,1,1.3,0.4c0.8-0.6,1.2-1.5,1.6-2.4
		c1-3.1,1.1-6.3,0.6-9.5c0-0.2-0.1-0.5-0.1-0.7c-0.1-0.5,0.2-0.6,0.6-0.5c0.2,0,0.4,0.1,0.6,0.1c1.5,0.3,2.8,0.9,4.3,1.3
		c0.5,0.2,1.1,0.7,1.6,0.3s0.1-1.2-0.1-1.7c-0.5-1.7-1.3-3.2-2.1-4.8c-0.2-0.4-0.5-0.8-0.5-1.3c0.7,0.2,1.3,0.4,1.9,0.6
		c2.7,1,5.4,1,8.2,0.1c0.8-0.3,0.9-0.3,0.5-1.1C218,318.1,217.3,317,216.5,316.1z"/>
	<path class="st1" d="M307.7,254.5c-0.3-2.9-2.5-5.6-5.5-5.7c-0.2,0.1-0.4,0.1-0.6,0.1c0.2,0,0.4,0,0.6-0.1c-0.4-0.2-0.9-0.2-1.3,0
		c0,0,0,0,0,0c-0.6,0.2-0.9-0.1-1.2-0.6c-1-1.8-2.5-3.1-4.7-3.5c-1.2-0.2-2.3-0.1-3.1,0.8c-1.4,1.6-2.2,3.8-0.9,6.2
		c0.1,0.2,0.3,0.5,0.2,0.8c0.2,0,0.2,0.1,0.2,0.2c0,0,0,0.1-0.1,0.1c0-0.1-0.1-0.2-0.1-0.3c-0.6-0.4-1-1-1.8-1.2
		c-2.3-0.5-4.9,0.4-6.3,2.4c-1.4,1.9-1.2,4.1,0.4,5.8c0.4,0.4,0.7,0.8,1.2,1c0.7,0.3,0.7,0.8,0.5,1.4c-0.2,0.7-0.5,1.4-0.6,2.1
		c-0.5,2.2,1.3,4.8,3.5,5.3c0.2,0.3,0.5,0.2,0.8,0.2c-0.1-0.1-0.1-0.1-0.2-0.1c0.1,0,0.1,0.1,0.2,0.1c0.3,0,0.6,0,0.9,0l0,0
		c0.2,0.1,0.4,0,0.5-0.2c-0.2,0-0.4,0-0.5,0.1c0.1-0.1,0.3-0.2,0.5-0.1c0.7,0.1,1-0.5,1.5-0.7c0.7-0.3,0.8-0.3,1.1,0.3
		c0.3,0.7,0.7,1.2,1.4,1.7c1.1,0.8,2.4,0.8,3.6,0.6c0.9-0.2,1.5,0,2.2,0.5c1.7,1.1,3.1,0.9,4.4-0.2c0.6-0.5,1-1.2,1.1-2
		c0.2-1,0.1-2.1-0.6-2.9c2.9-1.7,3.1-4,0.5-7.1c0.3-0.3,0.6-0.6,0.8-0.9C307.1,257.4,307.8,256.1,307.7,254.5z M285.7,257.3
		c0.1-1.1,0.9-2.2,1.8-2.5c1-0.3,2.6,0.4,3.1,1.4c0.5,0.9,0.3,1.8-0.5,2.4c-0.6,0.4-1.6,0.8-2.4,0.8
		C286.4,259.4,285.6,258.6,285.7,257.3z M290.5,265.6c-0.4,0.3-0.9,0.4-1.2,0.4c-1.2,0-1.9-0.7-1.9-1.4c0.1-0.9,1.2-1.8,2.2-1.7
		c0.2,0,0.5,0.1,0.7,0.2C291.5,263.6,291.6,264.8,290.5,265.6z M296.5,269c-0.6-0.1-1.1-0.8-1.1-1.5c0-0.8,0.4-1.1,1.1-1.1
		c0.8,0,1.1,0.5,1.1,1.3C297.6,268.5,297.1,269.1,296.5,269z M302.4,270c-0.8,0-1.4-0.8-1.4-1.7c0-0.8,0.6-1.4,1.4-1.4
		c0.8,0,1.3,0.7,1.2,1.5C303.6,269.3,303,270,302.4,270z"/>
	<path class="st1" d="M248.4,322.6c-0.4-0.6-0.5-1.3-0.4-2c0-0.3,0.1-0.5,0.1-0.8c-0.6-0.4-1.1-0.9-1.7-1.3c0.1,0.7,0.1,1.4,0.1,2.1
		c0,1,0.2,1.8,0.7,2.6c0.4,0.6,0.6,1.3,0.6,2.1c0,1.3-0.5,2-1.8,2.2c-0.4,0.1-0.8,0.1-1.2,0c-1.5-0.4-2.9-0.9-4.2-1.8
		c-0.2-0.1-0.6-0.3-0.4-0.6c0.2-0.3,0.5-0.1,0.8,0c0.4,0.1,0.7,0.3,1,0.4c0.2,0.1,0.3,0,0.4-0.1c0.1-0.2,0.1-0.4,0-0.6
		c-0.3-0.5-0.8-0.6-1.4-0.6c-0.4,0-0.9,0.1-0.9-0.5c0-0.5,0.6-0.5,0.9-0.5c0.8-0.1,1.5,0.2,2.2,0.4c0.6,0.2,1.2,0.5,1.9,0.2
		c0.2-0.1,0.5-0.2,0.5-0.5c0-0.3-0.2-0.4-0.5-0.4c0,0,0,0,0,0c-0.7-0.3-1.5-0.1-2.2-0.2c0.2,0.1,0.4,0.2,0.6,0.2
		c-0.2,0-0.4-0.1-0.6-0.2c-0.9-0.1-1.7-0.4-2.6-0.1c-0.2,0.1-0.4,0-0.5-0.2c-0.1-0.3,0-0.5,0.2-0.7c0.3-0.2,0.6-0.3,1-0.4
		c0.4-0.1,0.8-0.2,1.2-0.3c0.2-0.1,0.5-0.2,0.4-0.5c-0.1-0.3-0.3-0.4-0.7-0.4c-0.5,0-0.8,0.3-1.2,0.5c-0.6,0.4-0.6,0.4-1.3,0.4
		c0-0.1,0.1-0.3,0.1-0.3c1.3-0.9,2.4-2.1,3.6-3.2c0.2-0.2,0.4-0.4,0.7-0.5c0.2-0.1,0.3-0.2,0.5-0.3c-0.7-0.6-1.4-1.2-2.1-1.9
		c0,0.1,0,0.2-0.1,0.4c-0.1,0.4-0.3,0.8-0.5,1.1c-0.7,1.1-1.7,2-2.6,3c-0.3,0.3-0.7,0.5-1.1,0.4c-0.2,0-0.4-0.1-0.5-0.3
		c-0.1-0.2,0-0.4,0.2-0.5c0.4-0.3,0.8-0.6,1.1-0.9c0.2-0.2,0.4-0.4,0.1-0.7c-0.3-0.3-0.6-0.1-0.8,0.2c-0.2,0.3-0.4,0.7-0.7,1
		c-0.3,0.3-0.6,0.4-1,0.1c-0.3-0.3-0.2-0.6-0.1-0.9c0.4-0.8,0.8-1.5,1.5-2c0.4-0.3,0.7-0.6,1-0.9c0.2-0.1,0.3-0.3,0.2-0.5
		c-0.2-0.2-0.4-0.2-0.7,0c-0.4,0.2-0.7,0.6-1,1c-0.4,0.6-0.7,1.2-1.1,1.7c-0.1,0.2-0.2,0.5-0.7,0.7c0-1.2-0.1-2.4,0.2-3.6
		c0.1-0.4,0.2-0.8-0.2-1.1c-0.1,0-0.3,0-0.3,0c-0.3,0.3-0.3,0.7-0.2,1c0.1,0.7,0.1,1.4,0.1,2.2c0,0.3,0,0.6-0.2,0.9
		c-0.1,0.2-0.3,0.4-0.6,0.4c-0.3-0.1-0.4-0.2-0.5-0.5c0-0.1,0-0.3,0-0.4c0.4-1.2,0.1-2.4,0-3.6c-0.1-0.8,0.2-1.5,0.6-2.2
		c0.7-1.3,2-1.4,3-0.4c0.2,0.2,0.4,0.5,0.6,0.8c0.7,1.2,1.8,1.9,3.1,2.4c-1.7-1.7-3.4-3.6-5-5.5h0c-0.7,0-1.4,0.4-1.9,1.2
		c-0.2,0.4-0.3,0.8-0.8,1.1c-0.6-0.5-0.8-1.3-1.2-1.9c-0.6-1-1.5-1.2-2.5-1.1c-1.1,0-1.7,0.6-2.1,1.6c0,0.1,0,0.2-0.1,0.2
		c-0.5,1.5-1.5,2.5-3.1,2.7c-0.5,0.1-1,0.2-1.5,0.5c-1.8,1.4-1.9,2.8-0.6,4.2c0.6,0.5,1.2,1,1.8,1.5c-0.3,0-0.5-0.1-0.7-0.1
		c-0.9-0.1-1.8-0.4-2.8-0.1c-1.3,0.4-1.8,1.2-1.2,2.5c0.3,0.8,0.7,1.4,1.2,2.1c0.7,0.9,0.8,1.9,0.4,3c-0.2,0.6-0.5,1.2-0.7,1.8
		c-0.4,1.2,0.2,2.1,1.5,2.2c0.3,0,0.6,0,0.9-0.1c-0.4,1.5,0,2.6,1.2,3.4c1.6,1,2.6,2.3,3.5,4c0.1,0.3,0.3,0.5,0.5,0.8
		c1.3,1.9,2.8,1.4,4,0.2c0.4-0.3,0.5-0.8,0.6-1.3c0.2-0.9,0.4-1.8,0.6-2.7c0.4,0.2,0.3,0.6,0.4,0.9c0.3,1,0.7,1.9,1.3,2.7
		c1.2,1.4,2.7,1.3,3.8-0.2c0.3-0.4,0.6-0.8,0.9-1.3c0.8-1,1.7-1.7,3.1-1.5c1.4,0.1,2.4-0.6,3.2-1.7c0.9-1.2,0.8-2.6-0.3-3.6
		c-0.2-0.2-0.5-0.2-0.4-0.5h1.1c2.2,0,3.4-1.5,2.9-3.7C249.2,324.2,248.8,323.4,248.4,322.6z M239,325c0,0.4-0.5,0.8-0.8,0.7
		c-0.3-0.1-0.4-0.3-0.4-0.5c0-0.4,0.5-0.7,0.9-0.6C238.9,324.6,239,324.8,239,325z M236.1,326.1c-0.3,0-0.5-0.3-0.5-0.6
		c0-0.3,0.3-0.3,0.5-0.4c0.3,0,0.5,0.1,0.4,0.5C236.6,325.8,236.5,326.1,236.1,326.1z M236.4,327.5c0,0.3-0.3,0.4-0.5,0.4
		c-0.4,0-0.8-0.1-0.9-0.6c0-0.3,0.1-0.5,0.3-0.7c0.1-0.1,0.3-0.1,0.4,0C236.1,326.7,236.4,327.2,236.4,327.5z M235.7,322.9
		c0-0.2,0.1-0.4,0.3-0.4c0.3,0.1,0.6,0.2,0.7,0.5c0,0.3-0.2,0.4-0.4,0.4C236,323.4,235.7,323.2,235.7,322.9z M236.4,324.3
		c0-0.4,0.3-0.4,0.6-0.4c0.2,0,0.5,0,0.5,0.3c-0.1,0.3-0.3,0.5-0.6,0.5C236.7,324.7,236.4,324.6,236.4,324.3z M237.5,326.2
		c0.2,0,0.4,0.1,0.5,0.3c0,0.3,0,0.6-0.4,0.8c-0.3,0-0.4-0.2-0.5-0.5C237.1,326.5,237.1,326.2,237.5,326.2z M238.1,322.2
		c0.3,0.1,0.5,0.2,0.5,0.6c0,0.4-0.3,0.7-0.7,0.6c-0.3,0-0.5-0.1-0.5-0.5C237.3,322.6,237.8,322.1,238.1,322.2z M237.2,320.6
		c0.3,0,0.4,0.2,0.4,0.5c0,0.4-0.5,1-0.9,0.9c-0.2,0-0.2-0.2-0.2-0.3C236.5,321,236.8,320.6,237.2,320.6z M236.1,319.1
		c0.2,0,0.5,0.1,0.5,0.4c0,0.2-0.2,0.3-0.4,0.3c-0.3,0-0.5-0.1-0.5-0.4C235.6,319.1,235.9,319,236.1,319.1z M235.6,320.2
		c0.3,0,0.4,0.2,0.4,0.5c-0.1,0.4-0.3,0.7-0.7,0.7c-0.4,0-0.5-0.3-0.5-0.6C234.9,320.4,235.2,320.2,235.6,320.2z M234.3,318.2
		c0.3,0,0.6,0.1,0.6,0.5c0,0.3-0.2,0.4-0.5,0.4c-0.3,0-0.6,0-0.7-0.4C233.7,318.4,234,318.3,234.3,318.2z M233.8,319.8
		c0.2-0.1,0.4-0.2,0.5-0.1c0.1,0.1,0.1,0.3,0.1,0.4c-0.1,0.2-0.3,0.4-0.6,0.3c-0.2,0-0.4-0.1-0.5-0.3
		C233.4,320,233.6,319.9,233.8,319.8z M233.5,321.3c0,0.3-0.1,0.5-0.4,0.5c-0.2,0-0.3-0.2-0.3-0.4c0-0.3,0.1-0.5,0.5-0.5
		C233.4,320.9,233.5,321.1,233.5,321.3z M231.4,324.9c0.3,0,0.4,0.2,0.4,0.5c0,0.5-0.3,0.9-0.7,0.9c-0.3-0.1-0.6-0.2-0.5-0.6
		C230.5,325.4,231,324.9,231.4,324.9z M230.2,323.5c0-0.3,0.2-0.4,0.4-0.5c0.3,0,0.4,0.2,0.4,0.5c0,0.2-0.1,0.4-0.4,0.4
		C230.4,323.9,230.2,323.7,230.2,323.5z M231.6,324c0-0.2,0.1-0.3,0.3-0.3c0.2,0,0.3,0.2,0.3,0.4c0,0.2,0,0.3-0.3,0.3
		C231.8,324.4,231.6,324.3,231.6,324z M231.7,322.8c-0.2,0-0.4-0.2-0.3-0.4c0.1-0.4,0.4-0.5,0.7-0.4c0.2,0,0.5,0.1,0.5,0.4
		C232.4,322.8,232,322.9,231.7,322.8z M231.6,320.7c0-0.2,0.1-0.3,0.3-0.4c0.1,0,0.2,0,0.2,0.2c-0.1,0.2-0.1,0.4-0.3,0.4
		C231.7,321,231.6,320.9,231.6,320.7z M232.3,319.3c0-0.2,0.2-0.3,0.5-0.3c0.2,0,0.4,0.1,0.4,0.4c-0.1,0.3-0.3,0.4-0.5,0.4
		C232.4,319.7,232.3,319.5,232.3,319.3z M224.3,313.8c0.6-0.5,1.2-0.9,2-1.1c0.8-0.2,1.3-0.6,1.7-1.2c0.3-0.5,0.6-1,1-1.3
		c0.8-0.6,1.5-0.7,2.3-0.2c0.8,0.5,1.3,1.2,1.6,2.1c0.5,1.6,0.6,3.2,0.2,4.9c-0.1,0.5-0.4,0.6-0.7,0.2c-0.3-0.4-0.6-0.9-0.8-1.4
		c-0.4-0.8-1-1.3-1.7-1.7c-0.2-0.1-0.5-0.5-0.7,0c-0.1,0.3,0.1,0.5,0.3,0.5c1.4,0.5,1.9,1.8,2.4,3c0.1,0.2,0.1,0.3,0,0.5
		c-0.4,0.2-0.6-0.2-0.8-0.4c-0.5-0.4-1.1-0.7-1.7-1c-0.1,0-0.3-0.1-0.5,0.1c-0.1,0.2-0.1,0.4,0,0.6c0.2,0.2,0.5,0.3,0.7,0.4
		c0.3,0.1,0.7,0.2,1,0.3c0.3,0.1,0.7,0.2,0.7,0.6c0,0.4-0.4,0.6-0.7,0.7c-0.4,0.2-0.8,0.1-1.2,0.1c-2-0.4-3.7-1.4-5.2-2.7
		C223.2,315.9,223.2,314.8,224.3,313.8z M223,327.6c-0.6,0-0.9-0.3-0.8-0.9c0.1-0.5,0.4-0.9,0.6-1.3c0.7-1.2,0.6-2-0.3-3.1
		c-0.4-0.5-0.8-0.9-1.2-1.3c-0.3-0.3-0.6-0.6-0.5-1c0.2-0.5,0.7-0.6,1.1-0.6c2.4-0.1,4.7,0.4,6.9,1.6c0.2,0.1,0.4,0.2,0.5,0.4
		c0.3,0.3,0.4,0.7,0.2,1.1c-0.3,0.4-0.6,0.4-1.1,0.2c-0.6-0.3-1.3-0.6-2-0.9c-0.4-0.2-0.8-0.3-1.2-0.3c-0.2,0-0.5,0.1-0.6,0.4
		c-0.1,0.3,0.1,0.5,0.3,0.6c0.5,0.3,1,0.3,1.5,0.3c0.6,0,1.1,0.1,1.7,0.3c0.3,0.1,0.6,0.4,0.5,0.7c0,0.3-0.3,0.4-0.6,0.5
		c-0.6,0.1-1.3,0.2-1.9,0.3c-0.2,0-0.4,0.1-0.4,0.4c0,0.3,0.3,0.3,0.5,0.3c0.5,0,1,0,1.4-0.1c0.3-0.1,0.7-0.2,1.1,0
		c-0.2,0.5-0.7,0.6-1.1,0.8c-1.1,0.7-2.3,1.2-3.5,1.6C223.8,327.5,223.4,327.6,223,327.6z M233,330.7c-0.3,1.8-0.9,3.5-1.5,5.2
		c-0.1,0.2-0.3,0.5-0.5,0.7c-0.8,0.7-1.7,0.6-2.1-0.3c-0.6-1.7-1.9-2.7-3.2-3.7c-0.1-0.1-0.2-0.2-0.4-0.3c-1.4-1.3-1.3-2.5,0.2-3.6
		c1-0.8,2.2-1.3,3.4-1.9c0.3-0.2,0.8-0.3,1.1,0.1c0.3,0.4,0.2,0.8-0.1,1.2c-0.4,0.5-0.9,0.7-1.3,1c-0.4,0.2-0.8,0.4-1.2,0.7
		c-0.2,0.1-0.4,0.3-0.3,0.6c0.2,0.3,0.5,0.3,0.7,0.1c0.2-0.1,0.3-0.2,0.5-0.4c0.7-0.5,1.3-0.9,2.2-1.6c0,1-0.3,1.6-0.6,2.2
		c-0.2,0.4-0.4,0.7-0.4,1.1c0,0.3,0,0.5,0.3,0.5c0.2,0,0.3-0.2,0.4-0.4c0.1-0.5,0.3-1,0.5-1.5c0.1-0.3,0.2-0.7,0.4-1
		c0.2-0.4,0.9-0.7,1.3-0.6c0.5,0.1,0.5,0.6,0.5,1C233.1,330.1,233.1,330.4,233,330.7z M232.8,327.8c-0.2,0-0.4-0.1-0.4-0.4
		c0-0.1,0.1-0.3,0.3-0.3c0.2,0,0.4,0,0.4,0.3C233.2,327.6,233,327.8,232.8,327.8z M232.9,326.5c-0.4,0-0.5-0.3-0.5-0.7
		c0-0.3,0.3-0.5,0.6-0.4c0.3,0,0.5,0.2,0.5,0.5C233.4,326.3,233.2,326.5,232.9,326.5z M233.7,323L233.7,323L233.7,323
		c0,0.3,0,0.6,0,0.9c0,0.3-0.2,0.5-0.6,0.5c-0.3,0-0.4-0.2-0.5-0.5c-0.1-0.3-0.1-0.6,0.2-0.7C233.1,323.1,233.4,323,233.7,323
		L233.7,323L233.7,323c-0.1-0.6,0.2-1,0.5-1.7c0.6,0.2,1,0.6,0.9,1.2c0,0.4,0,0.8,0.4,1.1c0.2,0.2,0.3,0.5,0.1,0.8
		c-0.2,0.3-0.5,0.3-0.8,0.2c-0.3-0.1-0.5-0.2-0.5-0.5c0-0.2,0-0.5,0-0.7C234.2,323.1,234,322.9,233.7,323z M233.9,325.7
		c0-0.3,0-0.6,0.3-0.7c0.3,0,0.5,0.2,0.6,0.5c0,0.4-0.2,0.6-0.6,0.6C234,326.2,234,326,233.9,325.7z M242.1,333.3
		c-1.3,0.2-2.2,0.7-3,1.6c-0.4,0.4-0.9,0.8-1.3,1c-0.8,0.4-1.5,0.3-2-0.3c-1.2-1.9-1.4-4-1.2-6.2c0.8,0.7,0.8,1.6,1.1,2.4
		c0.1,0.3,0.2,0.7,0.3,1c0.1,0.2,0.3,0.4,0.5,0.3c0.2-0.1,0.3-0.3,0.3-0.5c0-0.4-0.1-0.8-0.4-1.1c-0.2-0.4-0.3-0.8-0.3-1.3
		c0-0.2,0-0.5,0.3-0.6c0.3-0.1,0.5,0.1,0.7,0.3c0.4,0.4,0.6,0.9,0.8,1.3c0.3,0.5,0.6,1,1.1,1.2c0.3,0.2,0.8,0.5,1.1,0
		c0.2-0.4-0.1-0.7-0.3-0.9c-0.2-0.2-0.4-0.3-0.6-0.4c-0.7-0.7-1.2-1.4-1.2-2.4c0-0.4,0.2-0.6,0.6-0.5c0.7,0.2,1.3,0.5,1.8,0.9
		c0.4,0.4,0.9,0.5,1.4,0.6c0.2,0,0.4-0.1,0.5-0.3c0.1-0.1,0-0.3-0.1-0.4c-0.2-0.4-0.7-0.5-1-0.5c-0.7-0.1-1.3-0.5-1.8-0.9
		c-0.1-0.1-0.2-0.2-0.2-0.4c0.1-0.2,0.2-0.2,0.4-0.2c1.5-0.1,4.1,1.5,4.6,2.9C244.8,331.2,243.8,333.1,242.1,333.3z"/>
	<path class="st1" d="M236.1,63.1L236.1,63.1c0.5-0.2,1-0.3,1.6-0.4c0.2,0,0.4,0,0.6,0c0.4,0.1,0.8,0.2,1,0.5c0.8,0,1.5,0.1,2.3,0.1
		c0.1-0.3,0.4-0.2,0.7-0.3c0.2,0,0.4,0.1,0.4,0.3c0.6,0,1.2,0.1,1.9,0.1c0,0,0,0,0.1,0c0.3-0.2,0.5-0.1,0.8,0.1c0.3,0,0.6,0,0.9,0.1
		c-0.2-0.1-0.3-0.2-0.5-0.4c-0.2-0.1-0.4-0.3-0.3-0.6c0.1-0.3,0.4-0.3,0.6-0.3c0.3,0,0.6,0.1,0.9,0.3c0.3,0.4,0.7,0.7,1,1
		c0.8,0.1,1.7,0.1,2.6,0.2c-1.1-1-2-2-3.3-2.9c0.7-0.3,1.1,0.1,1.5,0.3c0.4,0.2,0.8,0.5,1.3,0.6c0.3,0.1,0.5-0.1,0.6-0.3
		c0.1-0.3-0.1-0.5-0.3-0.5c-0.2-0.1-0.5-0.1-0.7-0.2c-0.3-0.1-0.7-0.1-1.1-0.3c-0.4-0.1-0.8-0.3-0.7-0.8c0.1-0.5,0.6-0.2,0.9-0.2
		c0.2,0,0.3,0,0.5,0c1.3-0.1,2.6-0.3,3.9-0.3c0.2,0,0.6-0.1,0.7-0.4c0-0.4-0.3-0.5-0.6-0.6c-0.3-0.1-0.7-0.1-1.1,0.1
		c-0.5,0.2-1.1,0.3-1.6,0.5c-0.6,0.2-1.3,0.2-1.9,0.1c-0.2-0.1-0.5-0.2-0.5-0.5c0-0.3,0.2-0.4,0.5-0.5c0.2,0,0.5,0,0.7,0
		c0.3,0,0.6-0.1,0.8-0.3c0.3-0.2,0.5-0.5,0.3-0.8c-0.2-0.3-0.5-0.2-0.7-0.1c-0.4,0.1-0.8,0.3-1.1,0.4c-0.2,0.1-0.3,0-0.4-0.2
		c-0.1-0.2,0.1-0.3,0.2-0.4c0.2-0.2,0.4-0.4,0.7-0.5c1.1-0.6,2.2-1,3.3-1.4c0.5-0.2,1-0.2,1.5-0.1c1.5,0.2,2.2,1.4,1.9,2.8
		c-0.1,0.5-0.4,1.1-0.7,1.6c-0.5,0.9-0.8,1.8-0.7,2.9c0,0.7,0,1.4-0.1,2c0,0.1,0,0.2-0.1,0.3c0.6,0,1.2,0.1,1.9,0.2
		c0-0.6,0-1.2-0.1-1.8c-0.3-1.3-0.1-2.5,0.5-3.6c0.5-0.8,0.8-1.8,0.8-2.8c0-1.7-1-2.8-2.8-2.9c-0.4,0-0.8,0-1.2,0
		c0-0.3,0.2-0.4,0.3-0.5c1.2-1.1,1.3-2.3,0.4-3.6c-0.8-1.1-1.8-1.9-3.2-1.8c-1.4,0.1-2.3-0.5-3.1-1.6c-0.4-0.5-0.7-1.1-1.2-1.5
		c-1-1.1-2.3-1.1-3.3-0.1c-0.3,0.3-0.6,0.7-0.8,1.1c-0.5,0.9-0.8,1.9-1,3c-0.3-0.3-0.3-0.8-0.4-1.2c-0.2-0.8-0.3-1.5-0.5-2.2
		c-0.8-2-3-2.4-4.3-0.7c-0.2,0.3-0.4,0.6-0.6,0.9c-0.9,1.6-1.9,3-3.5,4c-1.2,0.7-1.8,1.8-1.3,3.3c-0.2,0.2-0.4,0.1-0.6,0.1
		c-1.6,0-2.2,0.9-1.7,2.4c0.2,0.5,0.4,0.9,0.5,1.3c0.5,1.2,0.4,2.3-0.4,3.3c-0.5,0.6-0.9,1.3-1.2,2c-0.2,0.5-0.3,0.9-0.2,1.3
		C230.2,62.9,233.1,62.9,236.1,63.1z M238.5,59.1c-0.2,0-0.3-0.2-0.4-0.4c-0.1-0.3,0.1-0.5,0.3-0.5c0.3,0,0.5,0.1,0.5,0.4
		C238.9,58.9,238.8,59.1,238.5,59.1z M238.3,56.3c0-0.4,0.3-0.5,0.6-0.5c0.4,0,0.7,0.5,0.6,1c0,0.2-0.1,0.4-0.4,0.4
		C238.8,57.2,238.3,56.7,238.3,56.3z M239.8,57.8c0.1,0,0.2,0.1,0.2,0.2c0,0.2,0,0.3-0.2,0.4c-0.1,0-0.2-0.1-0.2-0.2
		C239.5,57.9,239.6,57.8,239.8,57.8z M239.2,59.7c0-0.3,0.3-0.3,0.5-0.3c0.3,0,0.7,0,0.7,0.5c0,0.3-0.3,0.4-0.6,0.4
		C239.4,60.2,239.2,60,239.2,59.7z M239.6,61.4c0.2-0.4,0.3-0.1,0.5,0.1c0.1,0.1,0.1,0.2,0.2,0.4C239.8,61.8,239.4,61.7,239.6,61.4z
		 M240.6,63.2c-0.2,0-0.5-0.1-0.5-0.4c0-0.2,0.2-0.3,0.4-0.3c0.2,0.1,0.6,0.1,0.5,0.5C241.1,63.1,240.8,63.2,240.6,63.2z
		 M240.5,60.7c0-0.2,0.1-0.3,0.6-0.3c0.1,0,0.3,0.2,0.3,0.5c0,0.2-0.2,0.4-0.4,0.4C240.7,61.3,240.5,61,240.5,60.7z M242.2,62.3
		c-0.4,0.2-0.7-0.1-1.1-0.4c0.4-0.2,0.7-0.6,1.1-0.2C242.3,62,242.4,62.2,242.2,62.3z M243.8,63.1c-0.2,0-0.4-0.2-0.3-0.4
		c0.1-0.3,0.4-0.4,0.7-0.3c0.2,0,0.2,0.2,0.2,0.4C244.3,63,244.1,63.1,243.8,63.1z M243.5,56.5c0.1-0.3,0.2-0.5,0.6-0.5
		c0.3,0.1,0.4,0.4,0.4,0.6c0,0.4-0.4,0.3-0.6,0.3C243.6,57,243.4,56.9,243.5,56.5z M243.4,55.7c-0.4,0-0.5-0.3-0.5-0.7
		c0-0.5,0.3-0.7,0.8-0.7c0.3,0,0.5,0.1,0.5,0.5S243.7,55.7,243.4,55.7z M244.1,58.8c0.2,0,0.4,0,0.5,0.3c0.1,0.2-0.4,0.7-0.7,0.7
		c-0.2,0-0.3-0.1-0.3-0.3C243.5,59.1,243.7,58.8,244.1,58.8z M245.1,61.5c-0.6,0-0.7-0.4-0.8-0.9c0-0.2,0-0.6,0.3-0.5
		c0.4,0.1,0.8,0.4,0.9,0.8C245.5,61.3,245.4,61.5,245.1,61.5z M245.9,60c-0.3,0-0.8-0.5-0.7-0.8c0-0.4,0.4-0.5,0.7-0.5
		c0.4,0,0.7,0.2,0.7,0.5C246.5,59.8,246.2,60,245.9,60z M246.8,57.3c-0.1,0.2-0.2,0.3-0.5,0.3c-0.2,0-0.5-0.1-0.7-0.1v0c0,0,0,0,0,0
		c-0.1,0.5-0.3,1-1,0.9c-0.2,0-0.4-0.1-0.4-0.4c0-0.2,0.2-0.3,0.4-0.4c0.3-0.2,0.7,0.2,1,0c0,0,0,0,0,0h0c0-0.2,0-0.3,0-0.5
		c0-0.4,0.3-0.6,0.7-0.5C246.7,56.6,246.9,56.9,246.8,57.3z M244.9,55.3c0.1-0.3,0.2-0.5,0.5-0.4c0.3,0.1,0.4,0.3,0.4,0.6
		c-0.1,0.3-0.2,0.5-0.5,0.4C245,55.9,244.8,55.6,244.9,55.3z M242.2,51.5c0.2-1.3,0.4-2.8,1-4.1c0.6-1.5,1.7-1.8,3-0.8
		c0.5,0.4,0.9,0.8,1.3,1.2c0.5,0.5,1.1,0.9,1.9,0.9c0.7,0,1.4,0.3,2,0.8c1,0.9,1.1,2.4,0.3,3.4c-1,1.4-2.5,2-4.2,2.3
		c-0.2,0-0.3,0-0.4-0.1c-0.1-0.2,0-0.4,0.2-0.5c0.5-0.4,1.1-0.7,1.7-0.8c0.5-0.1,1-0.2,1.2-0.8c0-0.1-0.1-0.3-0.1-0.3
		c-0.5-0.3-1,0-1.5,0.2c-0.6,0.3-1,0.8-1.7,1c-0.3,0.1-0.7,0.4-1,0c-0.2-0.3-0.1-0.7,0-1c0.3-0.7,0.7-1.4,1.3-1.9
		c0.3-0.2,0.5-0.4,0.7-0.7c0.1-0.2,0.2-0.5,0-0.7c-0.2-0.2-0.4-0.1-0.7,0c-0.6,0.3-1,0.8-1.4,1.3c-0.3,0.5-0.5,0.9-0.8,1.3
		c-0.2,0.2-0.4,0.4-0.7,0.3c-0.4-0.1-0.4-0.4-0.4-0.8c0-0.4,0.2-0.8,0.3-1.2c0.1-0.2,0.2-0.4,0.3-0.7c0.1-0.3,0.2-0.8-0.2-0.9
		c-0.5-0.1-0.5,0.3-0.7,0.7c-0.2,0.8-0.4,1.6-0.7,2.4c-0.1,0.2-0.1,0.6-0.5,0.5c-0.3-0.1-0.2-0.4-0.3-0.6
		C242.2,52,242.2,51.8,242.2,51.5z M242.1,56c0.3,0,0.5,0.1,0.5,0.5c0,0.3-0.1,0.5-0.4,0.6c-0.4,0-0.5-0.3-0.5-0.6
		C241.8,56.3,241.8,56,242.1,56z M241.6,58.3c0.1,0.2,0.1,0.4,0.1,0.6c0,0,0,0,0,0v0c0.6,0,0.4-0.5,0.4-0.8c0.1-0.5,0.5-0.8,0.9-0.7
		c0.4,0.1,0.6,0.6,0.5,0.7c-0.9,0.5-0.4,1.5-0.8,2.2c0,0.1-0.1,0.1-0.1,0.2c0,0,0,0,0,0c0.2,0,0.5,0,0.7,0.1
		c0.4,0.1,0.6,0.4,0.5,0.8c0,0.2-0.2,0.4-0.4,0.4c-0.4,0-0.6-0.3-0.7-0.7c0-0.2,0.1-0.5,0-0.7c0,0,0,0,0,0c0,0,0,0,0,0
		c-0.2,0-0.5,0.4-0.6,0.1c-0.2-0.4-0.7-0.8-0.4-1.4c0.1-0.1,0.1-0.3,0.1-0.4c0,0,0,0,0,0v0c-0.2,0-0.3,0-0.4,0.1
		c-0.4,0.1-0.7,0-0.8-0.4c-0.1-0.3,0-0.7,0.4-0.8C241.3,57.6,241.5,58,241.6,58.3z M241.3,56.2c0,0.3-0.2,0.5-0.5,0.5
		c-0.3,0-0.5-0.1-0.5-0.5c0.1-0.3,0.2-0.6,0.6-0.6C241.1,55.7,241.3,55.9,241.3,56.2z M240.7,55c-0.3,0-0.4-0.1-0.4-0.3
		c0-0.2,0.2-0.4,0.4-0.3c0.2,0,0.3,0.2,0.3,0.4C241,55,240.8,55,240.7,55z M232.9,50.4c0.4-0.5,0.9-0.9,1.4-1.3
		c1-0.8,1.9-1.6,2.3-2.9c0.2-0.6,0.5-1,1.2-1c0.7,0,1.2,0.4,1.5,1c0.2,0.5,0.4,1,0.6,1.6c0.3,1,0.6,2.1,0.9,3.1
		c0.1,0.4,0.2,0.9,0.1,1.3c0,0.5-0.1,0.9-0.6,1.1c-0.4,0.1-1.1-0.2-1.3-0.7c-0.3-0.7-0.5-1.4-0.7-2c-0.1-0.3-0.1-0.9-0.6-0.8
		c-0.5,0.1-0.3,0.7-0.1,1c0.3,0.8,0.8,1.5,0.8,2.4c0.1,0.1,0.1,0.2,0,0.2c0,0-0.1,0-0.2-0.1c-0.8-0.3-1.3-0.9-2-1.3
		c-0.2-0.1-0.4-0.3-0.6-0.4c-0.2-0.1-0.5-0.1-0.6,0.2c-0.1,0.2,0,0.4,0.2,0.5c0.5,0.3,1.1,0.7,1.7,1c0.4,0.2,0.8,0.5,1.1,1
		c0.2,0.3,0.2,0.7,0,1c-0.2,0.3-0.6,0.3-0.9,0.2c-1.4-0.7-2.9-1.3-4.1-2.4C232,52.3,232,51.4,232.9,50.4z M229,61.5
		c0.3-0.4,0.6-0.7,0.9-1c0.4-0.4,0.8-0.8,1-1.3c0.4-0.7,0.5-1.4,0-2.2c-0.2-0.4-0.5-0.8-0.7-1.1c-0.5-1-0.1-1.5,1-1.3
		c0.4,0,0.7,0.1,1.1,0.3c1.5,0.5,2.9,1.2,4.5,2.3c-0.9,0.3-1.4-0.1-2-0.1c-0.2,0-0.4,0-0.6,0c-0.3,0-0.7,0-0.7,0.3
		c0,0.3,0.4,0.4,0.7,0.4c0.6,0.1,1.2,0.2,1.8,0.2c0.3,0,0.5,0.2,0.5,0.5c0,0.3-0.1,0.5-0.4,0.7c-0.5,0.2-1,0.3-1.5,0.3
		c-0.5,0-1.1,0.1-1.5,0.3c-0.3,0.1-0.6,0.4-0.4,0.8c0.1,0.3,0.4,0.4,0.7,0.3c0.7-0.1,1.3-0.4,1.9-0.7c0.4-0.2,0.8-0.4,1.2-0.6
		c0.4-0.2,0.7-0.1,1,0.3c0.2,0.3,0.1,0.6-0.1,0.9c-0.2,0.3-0.6,0.6-0.9,0.8c-2.1,1-4.2,1.5-6.5,1.4c-0.2,0-0.4,0-0.6-0.1
		C228.8,62.5,228.6,62.1,229,61.5z"/>
	<path class="st1" d="M168,274c2,0.9,4,1.2,6.1,0.5c2.6-0.9,5.1-1.9,7.6-3.1c1-0.5,2-1,2.8-1.7c0.3-0.3,0.8-0.7,0.6-1.1
		c-0.2-0.5-0.8-0.4-1.3-0.4c-0.9,0.1-1.7,0.4-2.5,0.8c-0.6,0.4-1.2,0.6-1.9,0.6c-0.4,0-0.6-0.2-0.6-0.6c-0.1-1,0.4-1.8,1.3-2.3
		c0.8-0.4,1.8-0.6,2.8-0.5c0.3,0,0.7,0,1.1,0c0.5-0.1,1.2-0.8,1.3-1.3c0.1-0.7-0.5-0.7-0.9-0.9c-1.1-0.5-2.4-0.5-3.6-0.3
		c-1.5,0.2-3,0.8-4.4,1.2c-1.2,0.3-2.3,0.7-3.6,0.7c-0.7,0-1.3-0.2-1.8-0.7c-0.8-0.7-0.7-1.4,0.3-1.8c0.8-0.3,1.6-0.3,2.4-0.2
		c1.8,0.1,3.5-0.1,5.3-0.4c1.7-0.3,3.4-0.5,5.2,0c0.2,0,0.3,0.1,0.5,0.1c0.8,0.1,1.2-0.3,1.2-1.1c0-0.6-0.3-0.9-0.7-1.2
		c-1.1-0.7-2.4-1-3.6-1.2c-0.9-0.1-1.8-0.2-2.6-0.7c-0.6-0.4-0.7-0.6-0.4-1.3c0.3-0.8,0.8-1,1.8-0.7c1.1,0.3,2,0.8,2.9,1.4
		c0.9,0.5,1.7,1,2.7,1.3c0.4,0.1,0.7,0.1,1-0.2c0.3-0.4-0.1-0.7-0.4-0.9c-0.5-0.4-1.1-0.8-1.7-1.2c-2.9-2.3-5.4-4.9-8.1-7.3
		c-0.8-0.7-1.5-1.4-2.5-1.9c-2.1-1-3.8-0.3-4.6,1.9c-0.4,1.1-0.6,2.3-0.6,3.4c0,1.6-0.1,3.2,0,4.7c0,2-0.5,3.7-1.4,5.4
		c-0.4,0.7-0.8,1.4-1.2,2.1c-0.7,1.5-1.2,3.1-1,4.8C165.4,271.7,166.2,273.2,168,274z"/>
	<path class="st1" d="M204.4,288.6c0.7,2.2,1.3,4.4,2.1,6.6c0.5,1.5,1.5,2.7,3,3.3c1.5,0.6,3.1,0,3.8-1.4c0.4-0.7,0.7-1.5,1-2.2
		c0.5-1.3,1.3-2.5,2.3-3.5c1.6-1.5,3.3-2.7,5-4.1c0.4-0.3,0.8-0.7,1.1-1c-1.1-2.6-2.2-5.2-3.2-8c-0.4-1-0.7-2-1-3
		c-1.7-0.9-3.4-1.8-5.1-2.7c-0.4-0.2-0.9-0.4-1.4-0.5c-0.9-0.2-1.6,0.2-2,1.2c-0.3,1-0.1,1.8,0.6,2.6c1,1.1,2.1,1.9,3.3,2.6
		c1.2,0.7,2.5,1.4,3.7,2.2c0.6,0.4,0.6,0.9,0.1,1.4c-0.6,0.6-1.2,0.6-2-0.1c-1.6-1.4-3.5-2.5-5.2-3.8c-0.3-0.2-0.7-0.4-1.1-0.6
		c-0.4-0.2-0.6,0-0.6,0.4c0,0.2,0.1,0.4,0.1,0.6c0.3,1.8,1.1,3.4,1.9,5c0.4,0.8,0.7,1.6,0.7,2.5c0,0.6-0.4,1-0.9,1.1
		c-0.6,0.1-0.7-0.4-0.8-0.8c-0.4-1.3-0.8-2.6-1.2-3.9c-0.3-1-0.6-2.1-1.1-3.1c-0.2-0.5-0.5-1-1.1-1c-0.5,0-1-0.2-1.5-0.3
		c-0.9-0.2-1.5,0.1-1.9,0.9c-0.4,0.7-0.4,1.6-0.5,2.4c0.2,1.2,0.2,2.5,0.6,3.7C203.7,286.2,204,287.4,204.4,288.6z"/>
	<path class="st1" d="M180,289.5c0.7,0.2,1.4,0.2,2,0.2c1.3,0.2,2.5,0.6,3.4,1.6c1.2,1.2,2.4,2.3,3.6,3.4c0.8,0.7,1.6,1.3,2.7,1.7
		c1.9,0.7,3.2,0,4.2-1.1c0.6-0.6,1-1.4,1.3-2.2c1.5-3.7,2-7.6,2.4-11.4c0-0.3,0-0.7,0-1c-0.1-0.4-0.2-0.8-0.3-1.2
		c-0.1-0.3-0.4-0.6-0.7-0.6c-0.3,0-0.4,0.3-0.5,0.5c-0.2,0.4-0.4,0.8-0.5,1.2c-0.6,2-1.2,4-1.7,6.1c-0.1,0.6-0.3,1.3-0.7,1.8
		c-0.3,0.3-0.6,0.6-1,0.5c-0.4-0.2-0.6-0.5-0.6-1c0-0.6,0-1.2,0.2-1.8c0.2-0.7,0.5-1.3,0.9-1.9c0.6-1,0.8-2.1,0.6-3.3
		c-0.1-0.6-0.2-1.2-0.9-1.4c-0.6-0.2-1.1,0.2-1.5,0.6c-0.7,0.7-1.2,1.6-1.7,2.5c-0.6,1-1.1,2-1.8,2.9c-0.8,1.1-1.9,1.6-3.1,2
		c-0.4,0.2-1,0.2-1.3-0.3c-0.4-0.4-0.3-0.9-0.1-1.4c0.2-0.6,0.6-1.1,1.1-1.4c0.9-0.5,1.5-1.2,2.1-1.9c1.3-1.5,2-3.3,2.4-5.1
		c0.2-0.8-0.5-1.5-1.3-1.3c-1.5,0.4-3,0.7-4.3,1.7c-1.1,0.9-2.2,1.7-3.6,2c-0.7,0.1-1.3,0.2-1.9-0.1c-0.3-0.2-0.5-0.4-0.4-0.7
		c0.3-0.7,0.7-1.5,1.4-1.7c0.7-0.2,1.4-0.5,2.1-0.6c1.8-0.3,3.2-1.4,4.7-2.3c0.1-0.1,0.1-0.2,0.2-0.3c0.4-0.6,0.2-1-0.4-1.1
		c-0.4-0.1-0.9-0.1-1.3,0c-2.8,0.5-5.4,1.6-7.8,3.3c-1.6,1.1-2.8,2.5-3.4,4.3C173.3,284.1,175.4,288.4,180,289.5z"/>
	<path class="st1" d="M200,249.4c0.4-0.2,0.7-0.6,0.7-1.1c0.1-0.5,0-1-0.1-1.6c-0.3-1.6-0.6-3.3-0.3-4.9c0.2-1.6,0.2-3.2,0.2-4.8
		c0-1.4-0.4-2.7-1-4c-0.7-1.6-1.8-2.8-3.6-3.1c-0.2-0.1-0.5-0.1-0.9-0.1c-0.4,0-0.7,0.1-0.9,0.1c-1.1,0.3-1.9,0.9-2.6,1.8
		c-1,1.3-1.9,2.7-2.9,4c-0.8,1-1.7,1.8-2.9,2.3c-1.7,0.8-3.4,1.6-5.2,2.3c-1.1,0.4-1.6,1.4-1.4,2.6c0.3,1.7,1.2,3.2,2.3,4.6
		c1.7,2.3,3.7,4.2,5.7,6.3c0.5,0.5,0.9,1,1.6,1.2c0.1,0.1,0.2,0.2,0.3,0.1c0.5,0.1,0.9,0.1,1.4,0c0.2,0.1,0.4,0,0.5-0.2
		c1-0.8,1-1.2,0-1.8c-0.6-0.4-1.2-0.7-1.8-1.2c-0.7-0.5-1.4-1.1-1.7-2c-0.1-0.5-0.2-0.9,0.3-1.2c0.5-0.3,1-0.4,1.5,0
		c0.4,0.3,0.7,0.6,0.9,1.1c0.4,1,0.9,1.8,1.8,2.4c0.7,0.5,1.6,0.5,2.3-0.1c0.6-0.5,0.7-0.7,0.2-1.7c-1.2-2.6-2.5-5-5.2-6.5
		c-0.8-0.5-1.5-1.2-1.9-2.2c-0.3-0.6,0-1.1,0.7-1.1c0.7,0,1.2,0.4,1.7,0.8c0.8,0.7,1.5,1.5,2,2.4c1.2,1.8,2.4,3.7,3.6,5.5
		c0.2,0.3,0.4,0.7,0.7,0.9c0.3,0,0.3-0.2,0.3-0.3c0.1-3.1,0.2-6.1-0.4-9.2c-0.1-0.7-0.2-1.4,0-2c0.1-0.7,0.5-1,1-1
		c0.5,0,0.9,0.4,0.9,1.1c0,0.6,0,1.3,0,1.9c0,1.8-0.4,3.6-0.3,5.4c0,0.9,0.2,1.7,0.5,2.5C198.5,249.7,199,249.9,200,249.4z"/>
	<path class="st1" d="M201.4,262.4c0.1-0.1,0.2-0.2,0.2-0.4c0-0.1-0.1-0.2-0.1-0.2c-0.6-0.7-0.9-1.5-1.1-2.4c-0.1-0.5-0.6-0.7-1-0.4
		c-0.8,0.7-1.9,1.3-1.5,2.7c0.1,0.4,0,0.9,0,1.3c0,0.8-0.4,1.4-1,1.8c-0.3,0.2-0.9,0.3-0.7,0.8c0.1,0.4,0.2,0.9,0.5,1.2
		c0.4,0.4,0.9,0.8,1.5,0.6c0.6-0.2,1.1-0.6,1.7-0.7c0.2,0,0.2-0.2,0.2-0.4c0-0.3,0-0.6-0.1-0.8c-0.4-1.2,0-2,0.9-2.7
		C201,262.7,201.2,262.6,201.4,262.4z"/>
	<path class="st1" d="M194.4,274.2c-0.1,0.4-0.1,0.8,0.3,1.1c0.7,0.4,1.4,0.6,2.2,0.2c0.7-0.4,1.2-0.9,1.2-1.8
		c0-0.6-0.2-1.2-0.7-1.6c-0.3-0.3-0.7-0.4-1.1-0.2C195.4,272.5,194.8,273.2,194.4,274.2z"/>
	<path class="st1" d="M208.3,271.7c0.9-0.2,1.3-0.6,1.3-1.4c0-0.5-0.1-0.9-0.5-1.2c-0.4-0.4-1-0.7-1.5-1c-0.7-0.3-1.2,0-1.3,0.7
		c-0.1,0.7,0.1,1.4,0.4,2.1C207.1,271.7,207.5,271.9,208.3,271.7z"/>
	<path class="st1" d="M192.8,257.2c-1.3-0.2-1.5-0.1-1.5,1.2c0,0.3-0.1,0.8,0.2,1c0.5,0.3,0.9,0.8,1.4,1.1c0.3,0.2,0.6,0.3,1,0.3
		c0.6-0.1,0.8-0.4,0.5-0.9c-0.3-0.5-0.4-1-0.5-1.5C193.8,257.4,193.8,257.3,192.8,257.2z"/>
	<path class="st1" d="M190.3,261c-0.6,0.2-1.3,0.2-1.5,0.9c-0.5,1.3,0.2,2.3,1.6,2.3c0.4,0,0.8-0.1,1.2-0.2c0.5-0.1,0.7-0.4,0.6-0.9
		c0-0.4,0-0.8-0.4-1c-0.3-0.1-0.4-0.4-0.5-0.6C191.1,261.1,190.8,260.9,190.3,261z"/>
	<path class="st1" d="M202.7,266.8c0.8,0,1.5-1,1.5-1.9c0-0.9-0.6-1.6-1.5-1.6c-1,0-1.6,0.6-1.6,1.4
		C201.2,265.9,201.9,266.9,202.7,266.8z"/>
	<path class="st1" d="M198.3,257.8c0-1-0.7-1.8-1.7-1.8c-0.8,0-1.2,0.5-1.2,1.4c0,1.1,0.8,1.9,1.9,1.9
		C197.8,259.3,198.3,258.5,198.3,257.8z"/>
	<path class="st1" d="M187.9,268.1c0.1,0.6,0.4,1.2,0.9,1.6c0.4,0.3,0.8,0.6,1.3,0.4c0.5-0.2,1-0.9,1-1.4c0-0.5-0.2-0.9-0.6-1.2
		c-0.5-0.4-1.1-0.4-1.7-0.4C188.2,267.1,187.8,267.5,187.9,268.1z"/>
	<path class="st1" d="M206.2,262.8c0.2,0,0.3,0,0.5,0c0.8-0.1,1-0.3,0.8-1.1c-0.2-0.7-0.5-1.2-1.3-1.3c-0.7-0.1-1.8,0.3-2.1,0.8
		c-0.2,0.3-0.1,0.6,0.1,0.9C204.7,262.6,205.4,262.8,206.2,262.8z"/>
	<path class="st1" d="M203.5,272.2c0.5,0,1.3-1,1.3-1.7c0-0.6-0.6-1.1-1.4-1.1c-0.9,0-1.5,0.5-1.5,1.2
		C201.9,271.6,202.5,272.2,203.5,272.2z"/>
	<path class="st1" d="M199.2,253.5c0.7-0.1,1.4-0.1,2.1-0.5c0.6-0.4,0.7-0.8,0.1-1.2c-0.5-0.4-1.1-0.7-1.8-0.7
		c-0.8,0-1.3,0.5-1.3,1.3C198.4,253,198.7,253.5,199.2,253.5z"/>
	<path class="st1" d="M194.8,266.2c0-0.4-0.2-0.7-0.6-0.8c-0.6-0.3-1.3-0.2-1.9,0c-1.1,0.3-1.3,0.9-0.5,1.7c0.4,0.4,0.9,0.8,1.5,0.4
		C193.9,267.2,194.6,267,194.8,266.2z"/>
	<path class="st1" d="M200.1,271.4c0.7-0.2,0.5-0.9,0.7-1.4c0-0.8-0.3-1.5-0.8-1.7c-0.4-0.2-1.1,0.1-1.5,0.6c-0.3,0.4-0.3,1.2,0,1.7
		C198.8,271,199.9,271.5,200.1,271.4z"/>
	<path class="st1" d="M195.1,268.5c-0.2,0-0.3-0.1-0.4-0.1c-0.4,0.1-0.9,0.1-0.9,0.5c0,0.6,0,1.3,0.5,1.8c0.5,0.6,1.2,0.6,1.7-0.1
		C197.1,269.2,196.9,268.9,195.1,268.5z"/>
	<path class="st1" d="M191.8,274.2c0.7,0,1.2-0.7,1.2-1.5c0-1-0.5-1.4-1.4-1.3c-0.7,0-1,0.3-1,1.1
		C190.5,273.4,191.1,274.1,191.8,274.2z"/>
	<path class="st1" d="M195,255.2c0.4,0,0.7-0.1,1-0.2c0.4-0.3,0.7-0.6,0.6-1.2c-0.1-0.5-0.6-0.8-1.2-0.7c-0.7,0.1-1.2,0.4-1.6,0.9
		c-0.3,0.4-0.2,0.7,0.2,0.9C194.3,255.2,194.6,255.3,195,255.2z"/>
	<path class="st1" d="M203,260.3c0.6,0,1.1-0.5,1.1-1.2c0-0.7-0.7-1.5-1.3-1.5c-0.5,0-1.1,0.7-1.1,1.3
		C201.7,259.5,202.4,260.3,203,260.3z"/>
	<path class="st1" d="M196.2,262.1c-0.3-0.7-0.5-0.8-1.1-0.3c-0.2,0.2-0.4,0.4-0.7,0.4c-0.3,0-0.6-0.1-0.7,0.2
		c0,0.4-0.1,0.9-0.1,1.3c0.4,0.2,0.8,0.2,1.2,0.2C195.9,264.2,196.6,263.3,196.2,262.1z"/>
	<path class="st1" d="M201.5,256.7c0.4-0.1,0.8-0.3,1.1-0.6c-0.6-0.7-1.4-1.1-2.4-1.3c-0.7-0.1-1,0.3-0.8,1
		C199.9,257,200.2,257.2,201.5,256.7z"/>
	<path class="st1" d="M210.3,264.5c0-0.6-0.6-1.5-1.2-1.5c-0.6,0-1.1,0.6-1.1,1.3c0,0.7,0.4,1.1,1.1,1.1
		C209.8,265.4,210.3,265.1,210.3,264.5z"/>
	<path class="st1" d="M203.7,275.5c0.5,0,1-0.4,1.1-0.9c0.1-0.5-0.5-1-1.2-1.1c-0.6,0-1.1,0.3-1.2,0.8
		C202.4,274.9,203,275.5,203.7,275.5z"/>
	<path class="st1" d="M203.6,252.9c-0.4,0.2-1-0.1-1.2,0.6c-0.1,0.5,0.2,0.9,0.9,1.2c0.1,0.1,0.3,0.1,0.5,0.2c0.6,0.1,1-0.2,1.1-0.8
		C204.9,253.4,204.5,252.9,203.6,252.9z"/>
	<path class="st1" d="M205.3,267.1c0.4-0.2,1-0.3,1.4-0.8c0.3-0.4,0-0.8-0.4-1.1c-0.3-0.3-0.7-0.3-1,0c-0.3,0.5-0.4,1-0.4,1.6
		C204.9,267,205,267.1,205.3,267.1z"/>
	<path class="st1" d="M206.4,258.1c0.3-0.2,0.4-0.5,0.2-0.8c-0.4-0.8-1.1-1.1-2.1-1.1c0.3,0.7,0.9,1.1,1,1.7
		C205.7,258.3,206,258.2,206.4,258.1z"/>
	<path class="st1" d="M259,194c-0.7-0.3-1.3-0.3-2,0C257.7,194.1,258.3,194.1,259,194z"/>
	<path class="st1" d="M260.7,39.7c-0.6-0.3-1.2-0.3-1.8,0C259.5,39.8,260.1,39.8,260.7,39.7z"/>
	<path class="st1" d="M304.4,237.4c-0.1,0-0.2,0-0.3-0.1C304.2,237.4,304.3,237.5,304.4,237.4z"/>
	<path class="st1" d="M277.2,320.1c0-0.1,0-0.2-0.1-0.2c-0.2-0.4-0.6-0.4-1-0.2c-0.1,0-0.2,0.1-0.3,0.2c-9.2-2.2-19.1-7.2-27.6-17.5
		c-1.6-2-3.2-4.1-4.7-6.5l-0.3-0.5c-8-12.7-13.6-26.8-16.5-41.4c-0.5-2.2-0.8-4.5-1.2-6.7c-2.4-16.6-1.4-33.7,3-50.2
		c0.2-0.7,0.4-1.4,0.5-2c0.1-0.3,0.1-0.5,0.2-0.8c4.3-16.1,7.6-30.1,10.2-42c0.3-1.2,0.5-2.5,0.8-3.7c2.3-11,3.9-20.2,5.1-27.7
		c1.8-11.5,2.5-19.1,2.7-23.3c-1.4,1.4-2.8,3-3.2,3.9c-4.3,10.8-9.3,25.2-14.1,43c-0.2,0.9-0.5,1.7-0.7,2.6
		c-3.7,14.4-7.3,30.8-10.1,49.3c-0.5,3.5-1,7-1.5,10.7c-0.3,2.2-0.6,5.1-0.8,8.5c-0.1,1.7-0.2,3.5-0.3,5.5c-0.1,2-0.2,4.2-0.3,6.6
		c-0.1,2.7-0.1,5.4-0.1,8c0.1,5.5,0.5,11,1.3,16.3c0.2,1.2,0.3,2.4,0.6,3.6c0.2,1.4,0.5,2.8,0.8,4.2c0.2,0.8,0.4,1.7,0.6,2.5
		c0,0,0,0,0,0c0,0,0,0,0,0c0.4,1.8,0.8,3.6,1.3,5.3c0,0.1,0,0.2,0.1,0.3c0.6,2,1.2,4,1.8,6c0.3,0.9,0.6,1.8,0.9,2.7
		c2.5,7,5.5,13.2,9,18.9v0c1.1,1.8,2.2,3.5,3.4,5.1c0,0,0,0,0,0c6.7,9.4,14.9,16.6,24.5,21.7c18,8,32.5,3.1,41.5-2.4
		c-3.8,0.8-8.1,1.4-12.8,1.5C286.1,321.3,281.7,321.1,277.2,320.1z"/>
	<path class="st1" d="M213.7,248.3c0.1-0.4,0-0.7-0.2-1c-0.2-0.3-0.6-0.2-0.9-0.1c0,0-0.1,0-0.1,0c0.1,0.7,0.1,1.5,0.2,2.2
		C213.2,249.1,213.5,248.7,213.7,248.3z"/>
	<path class="st1" d="M241.7,314c-0.2-0.1-0.4-0.2-0.6-0.2c0,0,0,0,0,0c0.4,0.4,0.8,0.8,1.2,1.2C242.5,314.5,242.3,314.2,241.7,314z
		"/>
	<path class="st1" d="M213.2,240.6c0.2-0.4,0-0.7-0.5-0.7c-0.2,0-0.5,0-0.7,0.1c0,0.6,0.1,1.2,0.1,1.8
		C212.6,241.6,213,241.2,213.2,240.6z"/>
	<path class="st1" d="M232.5,63.8C232.5,63.8,232.5,63.8,232.5,63.8C232.5,63.8,232.5,63.8,232.5,63.8
		C232.5,63.8,232.5,63.8,232.5,63.8C232.5,63.8,232.5,63.8,232.5,63.8z"/>
	<path class="st1" d="M107.2,243.3c2.9,0,5.6-0.1,8.2-0.4c2.7-0.2,5.6-0.6,8.5-1.1c8.2-1.4,17-4.1,25.8-8.7
		c13.8-7.3,27.2-19.5,37.6-39.7c9.7-18.9,16.6-36.9,19.8-58.6c0.4-2.6,0.7-5.3,1-8.1c0,0,0.1-0.1,0.1-0.1c0,0,0,0-0.1-0.1
		c1-9.9,1.3-20.6,0.7-32.4c0-1-0.1-1.9-0.1-2.9c0-1-0.3-3.2-0.5-5.1c-0.2-1.3-0.9-2.4-2.9-2.4c0,0,0,0,0,0c-2.6,0-7.4,0.7-8.6,1.1
		c-0.7,0.2-1.1,0.7-1.1,1.4c0.4,3.7,1.7,16.1,1.1,32.4c0,0.8-0.1,1.6-0.1,2.4c-1.7,33.6-11.8,81.8-53.5,103.4
		c-10.4,5.4-21.2,7.8-31.8,7.8c-17.7,0-34.9-6.7-48.7-16.7c-1.2-0.9-2.5-1.8-3.6-2.8c-0.6-0.5-1.2-1-1.8-1.5
		c-0.5-0.4-0.9-0.8-1.3-1.2c-9.2-8.2-15-18.5-18.7-28.6v0c-4.1-11.2-5.4-22.2-5.8-29.9l-0.6,1.8c-6.7,18.8-5.3,37.2,2.8,52.4v0.2
		c0,1.4,0.4,2.5,1.8,3.2c0,0,0.1,0,0.1,0.1c6.9,11.2,17.7,20.5,31.8,26.8C78.2,240.8,93.9,243.3,107.2,243.3z"/>
	<path class="st1" d="M33.6,155c0.1,0,0.2,0,0.2,0c0.6-0.1,1.2-0.1,1.9-0.1c0.3,0,0.7,0,1,0.1c3.5,0.3,7.1,0.5,10.6,0.1
		c1.4-0.2,2.7-0.3,4-0.9c0.4-0.2,0.7-0.4,1.1-0.5c0.5-0.1,0.7,0,0.6,0.5c-0.1,0.3-0.2,0.6-0.4,0.9c-0.4,0.8-0.7,1.6-0.8,2.4
		c-0.1,0.5-0.4,1.3,0.2,1.5c0.5,0.2,0.9-0.5,1.1-0.9c1.8-2.8,4.5-3.6,7.6-3.7c1.1-0.1,1.2,0.2,0.9,1.2c-0.4,1.2-0.9,2.4-1.5,3.6
		c-0.6,1.1-1.2,2.2-2.4,2.8c-0.1,0.1-0.3,0.2-0.4,0.3c-0.3,0.4-0.2,0.8-0.1,1.2c0.1,0.4,0.5,0.2,0.7,0.2c0.4,0,0.7,0.1,1.1,0
		c2.7-0.8,5.3-1.6,7.8-2.9c2.4-1.3,4.2-3.1,4.9-5.9c0.1-0.4,0.2-0.8,0.4-1.1c0.2-0.5,0.6-0.9,1.2-1.1c0.3,0.7,0,1.3-0.1,1.9
		c-0.1,2.4-0.9,4.3-2.9,5.7c-0.5,0.3-0.9,0.7-0.9,1.4c0.5,0.3,0.9,0.2,1.3,0.1c1.1-0.3,2.2-0.6,3.2-1.1c0.9-0.4,1.8-0.8,2.6-1.3
		c2.4-1.8,4-4.1,5-7c0.1-0.2,0.1-0.5,0.4-0.5c0.3,0.2,0.3,0.6,0.5,0.8c1.3,2.3,3,4.1,5.7,4.8c0.7,0.2,1.2-0.1,1.6-0.5
		c0.3-0.2,0.4-0.6-0.1-0.9c-1.8-1.4-2.7-3.4-3.2-5.6c-0.4-2.1-0.1-3.6,2.3-4.8c1-0.5,2.1-0.8,3.1-1.2c3.8-1.4,7.7-2.3,11.7-2.9
		c3.4-0.5,6.9-0.8,10.4-0.5c3.7,0.3,7.3,1,10.9,2.2c4.3,1.5,8.6,2.9,13,4.3c0.9,0.3,1.8,0.7,2.7,1.1c1.9,1,3.7,2.2,5.5,3.3
		c6,3.8,11.2,8.3,15.6,13.9c1.6,2.1,3,4.2,4.4,6.4c0.5,0.7,1,1.4,1.6,2c0.3,0.3,0.7,0.5,1.1,0.3c0.5-0.2,0.5-0.7,0.5-1.2
		c-0.1-0.7-0.3-1.3-0.6-2c-0.8-1.8-1.9-3.5-2.9-5.2c-3.2-5.4-7.2-10.1-11.6-14.5c-1.4-1.4-2.7-2.7-4.1-4c-3.6-3.3-7.3-6.3-10.9-9.6
		c-2.8-2.6-5.4-5.4-7.6-8.5c-1.3-1.9-2.4-3.8-3.7-5.7c-1.6-2.4-2.5-2.6-5.2-1.6c-1,0.4-1.8,0.2-2.6-0.5c-0.6-0.6-1.2-1.2-1.7-1.9
		c-1.6-2.2-3.2-4.4-4.9-6.5c-1.5-1.9-3-3.7-5.1-5c-2.2-1.4-4.1-1.1-5.9,0.8c-1.4,1.5-2.7,1.7-4.4,0.6c-0.4-0.2-0.8-0.5-1.1-0.7
		c-2.5-1.7-4.5-3.9-6.5-6.2c-1.7-2.1-3.3-4.3-3.7-7.1c-0.2-1.4-1.1-1.8-2.5-1.5c-0.9,0.2-1.8,0.5-2.6,0.9c-0.4,0.2-0.7,0.1-1-0.2
		c-0.8-1-1.6-2.1-2.2-3.3c-1.4-2.9-2.1-6-1.9-9.3c0.1-2.3,0.7-4.5,2.1-6.5c0.7-0.9,1.6-1.5,2.6-1.8c0.5-0.2,1.1-0.1,1.7,0
		c0.5,0.1,0.8,0.4,0.9,0.9c0.1,0.5-0.2,0.8-0.6,1c-0.4,0.2-0.8,0.3-1.1,0.5c-0.7,0.4-0.8,1-0.5,1.8c0.3,0.9,0.9,1.5,1.8,1.6
		c1,0.1,1.8-0.2,2.4-1.1c1.8-2.6,0.2-6.1-3-6.5c-3-0.3-5.4,1.1-7.3,3.2c-1.7,1.8-2.7,4.1-2.9,6.7c-0.1,0.9-0.5,1.3-1.4,1.3
		c-0.9,0-1.3,0.4-1.7,1.1c-0.2,0.5-0.3,1.1-0.4,1.6c-0.2,2.2,0.3,4.3,0.9,6.4c0.9,3.2,2.2,6.2,3.4,9.2c0.6,1.5,0.5,1.6-0.9,2.1
		c-1.4,0.5-1.8,1.2-1.5,2.7c0.2,1.3,0.8,2.5,1.5,3.7c2,3.4,4.6,6.3,7.5,9c5,4.6,10.5,8.3,16.5,11.4c5.6,2.8,11.4,5.1,17.2,7.2
		c2.7,1,5.4,1.7,8,2.7c-0.1,0.2-0.3,0.2-0.5,0.3c0,0,0,0,0,0c-2.5-0.5-5-0.9-7.5-1.1c0,0,0,0,0,0c-0.5-0.3-1-0.2-1.5-0.1
		c0,0,0,0,0,0c-6.3-0.3-12.5,0.5-18.6,1.9c-1.8,0.4-3.6,0.7-5.4,1c-0.9,0.2-1.9,0.1-2.6-0.7c-1.3-1.5-2-3.3-1.7-5.4
		c0.3-2.2,1.7-3.6,3.5-4.7c0.3-0.2,0.8-0.3,0.7-0.7c-0.1-0.4-0.6-0.5-1-0.5c-0.5-0.1-1-0.1-1.5,0c-1.4,0.3-2.7,1-3.6,2.1
		c-1.3,1.5-2.1,3.3-2.4,5.2c0,0.3-0.1,0.7-0.4,1c-0.9-0.9-1.9-1.8-2.9-2.4c-2.1-1.3-4.2-2.2-6.8-1.9c-0.5,0-1,0.1-1.5,0.5
		c-0.5,0.4-0.5,0.9,0.2,1.2c0.5,0.2,1,0.3,1.4,0.6c1.8,1.1,2.7,3.8,2.2,6.4c-0.9-0.9-1.8-1.8-2.7-2.6c-2.4-2.4-5.3-3.9-8.7-3.9
		c0,0,0,0,0,0c-0.3-0.2-0.7-0.2-1-0.1c0,0,0,0,0,0c-0.4,0-0.7-0.2-1-0.3c-0.7-0.2-1.1,0-1.1,0.8c0,0.5,0.2,1,0.3,1.4
		c0.5,1.4,1.3,2.7,1.9,4c0.2,0.4,0.5,0.7,0.4,1.2c-0.4,0.2-0.7,0.1-1.1,0c-1.6-0.3-3.2-0.7-4.8-1.3c-0.9-0.3-1.6-0.8-2.1-1.5
		c-0.2-0.3-0.4-0.6-0.8-0.8c-0.5-0.2-0.8-0.1-0.9,0.4c-0.1,0.6,0,1.2,0.2,1.8c0.4,0.9,0.9,1.7,1.4,2.5c0.4,0.7,0.4,0.9-0.4,0.9
		c-2.1-0.1-3.9,0.8-5.7,1.8c-2,1.2-4,2.3-5.8,3.7c-1.2,0.9-2.7,1.4-4.1,1.8c-0.1,0-0.2,0-0.3,0.1c-0.7,0.2-1.4,0.5-2,0.8
		c0,0,0,0-0.1,0c-0.4,0.2-0.7,0.5-0.5,1C33.1,155.1,33.4,155,33.6,155z M122.2,140.6c0.4,0.1,0.8,0.2,1.1,0.5c0.1,0,0.1,0,0.2,0
		c-0.1,0-0.1,0-0.2,0C123,140.8,122.6,140.7,122.2,140.6z M124,141.4C124,141.4,124,141.4,124,141.4C124,141.4,124,141.4,124,141.4
		C124,141.4,124,141.4,124,141.4z M123.8,141.3C123.8,141.3,123.8,141.3,123.8,141.3C123.8,141.3,123.8,141.3,123.8,141.3z
		 M124,141.4C124,141.4,124,141.4,124,141.4C124,141.4,124,141.4,124,141.4C124,141.4,124,141.4,124,141.4c0.1,0,0.1,0,0.2,0
		c0.1,0,0.2,0,0.2,0c0,0-0.2,0-0.2,0C124.1,141.4,124.1,141.4,124,141.4c0.1,0.1,0.1,0.1,0.2,0.1c0,0,0,0,0,0c0,0,0,0,0,0
		C124.1,141.5,124.1,141.5,124,141.4z M124.3,141.6C124.3,141.6,124.3,141.6,124.3,141.6C124.3,141.6,124.3,141.6,124.3,141.6z
		 M124.5,141.6C124.5,141.6,124.5,141.6,124.5,141.6C124.5,141.5,124.5,141.5,124.5,141.6C124.5,141.5,124.5,141.5,124.5,141.6
		C124.5,141.6,124.5,141.6,124.5,141.6z M110.4,128.9c-6.5-3.6-12.8-7.6-18.5-12.3c-4-3.2-7.7-6.6-10.7-10.7
		c-2.3-3.1-4.3-6.5-5.9-10.1c-0.9-2.2-1.7-4.3-2.2-6.7c-0.1-0.7-0.2-1.4-0.1-2.2c0.5,2.6,1.4,5.1,2.3,7.6c0.8,2.1,2,3.9,3.2,5.8
		c3.1,4.9,7.2,9,11.6,12.7c5.1,4.4,10.7,8.2,16.4,11.8c3.5,2.2,7.1,4.2,10.6,6.2c4.3,2.4,8.8,4.7,13,7.5c1.9,1.3,4,2.3,6,3.4
		c3.3,1.9,6.5,3.9,9.6,6c1.2,0.8,2.5,1.6,3.7,2.6c0.3,0.2,0.7,0.5,0.8,0.9c-0.4,0.2-0.6-0.1-0.9-0.3c-4.1-2.5-8.3-5-12.5-7.3
		c-5.6-3.1-11.2-6.3-16.8-9.5C116.9,132.4,113.7,130.6,110.4,128.9z M123.2,141.2L123.2,141.2c0,0,0.1,0.1,0.1,0.1
		C123.3,141.3,123.3,141.2,123.2,141.2c-0.5,0-1,0-1.5-0.2C122.2,141.1,122.7,141.2,123.2,141.2z M112.8,139.7
		C112.8,139.7,112.8,139.7,112.8,139.7C112.8,139.7,112.8,139.7,112.8,139.7z M59.4,136.4c0.2,0.2,0.5,0.2,0.7,0.2
		C59.9,136.6,59.7,136.6,59.4,136.4z"/>
	<path class="st1" d="M116.5,101.7c0,0-3.4,12.5,19.9,24.1c0,0-2.6,7.3,10.6,14.4c10.6,5.7,35.6,33.7,20.1,54
		c-7.9,10.3-27.4,12.7-38.9,6.9c-15.7-8-33.4-23-26.3-43.1c0,0,3.8-7.9,9.8-5.3c0,0-1,4.2,2.8,4.1c3.8-0.1,5.5-10.3-4.9-11
		c-10.4-0.8-17.2,14.6-16.3,26.4c0.8,11.8,8.1,19.4,8.1,19.4s1,1.5,1,3s-1.5,7.2,6.8,11.3c8.3,4.1,41.1,11.4,57.2-7.1
		c2.5-2.9,4.9-5.7,7.1-8.5c6.2-8.1,10.8-16.2,12-27.3c1.1-9.5-0.3-21.1-5-36.6c0,0-9.5-19.4-15-15.5c0,0-6.4-14.3-12.1-18.5
		c-1.2-0.9-2.3-1.3-3.4-1c0,0,0,0,0,0c-0.2,0.1-0.4,0.1-0.6,0.2c-0.7,0.3-1.3,1-1.9,2c0,0-0.5-0.3-1.2-0.8c-0.5-0.4-1.3-0.9-2.1-1.4
		c3.6-1.4,7.7-2.9,12.4-4.3c2.4-0.8,5-1.5,7.8-2.3c0.5-0.1,1-0.3,1.5-0.4c4.6-1.2,9.6-2.4,15-3.5c0.4-0.1,0.8-0.2,1.2-0.2
		c9-1.8,19.2-3.4,30.4-4.5c0,0.1-0.1,0.2-0.1,0.4l-0.7,1.8c-0.4,0.7-0.6,1.4-0.7,2.2c-0.1,0.5-0.1,1-0.1,1.5h0c0,0,0,0.1,0,0.1
		c0,0.1,0,0.2,0,0.4c0,0.2,0,0.3,0,0.5v0c0,0.2,0,0.4,0,0.6c-0.1,2.3,0,4.5,0.3,6.8c0.2,1,0.3,1.9,0.5,2.9c0,0,0,0,0,0
		c0.1,3,0.2,6.6,0.3,10c0.1,3.1,0.1,6,0.1,8.1c-0.1,5.4-0.7,13.7-1.7,19c-1.2,6.6-1.3,11.8-0.9,15.8v0c0,0.1,0,0.2-0.1,0.3
		c0.1,0.2,0.1,0.5,0.2,0.7c0,0,0,0,0,0c0.7,5.2,2.1,7.8,2.1,7.8c0.5,1.9,1,3.8,1.2,5.8c0.1,1.2,0,1.1-1.1,1.4
		c-0.9,0.2-1.7,0.6-2.2,1.4c-0.5,0.8-0.4,1.1,0.3,1.7c0.8,0.6,1.3,1.3,1.8,2.1c1.5,2.4,2.3,5,2.6,7.7c0.4,2.9,0.6,5.8,0.8,8.7
		c0.2,3,0.4,5.9,0.5,8.9v0c0,0,0-0.1,0-0.1c1-3.1,1.9-9,2.7-15.5c1.5-12,2.6-25.6,2.6-25.6c0.2-4.3,0.5-8.5,1-12.8l0.2-1.6l0.4-3.5
		l0-0.2c0.2-1-0.3-1.6-1.2-2c-0.9-0.4-0.9-0.4-0.7-1.4c1.1-5.8,2.8-11.4,4.9-16.8c0.9-2.4,2.2-4.5,3.3-6.8c0.8-1.7,1.5-3.4,1.7-5.3
		c0.2-2.2-0.9-3.8-3.1-4.2c-0.5-0.1-1-0.2-1.6-0.3c0.6-1.7,1.3-3.3,2.2-4.7c1.5-2.4,2.8-4.8,3.2-7.6c0.1-0.4,0.1-0.8,0.1-1.1
		c0,0,0,0,0,0c0-0.2,0-0.4,0-0.6c0-0.1,0-0.3,0-0.4c0-0.9-0.1-1.8-0.4-2.6c0-0.1,0-0.1-0.1-0.2c0-0.1,0-0.1,0-0.2
		c-0.3-0.9-0.6-1.5-1.1-2h0c-0.9-1.1-2-1.4-2.8-1.5c-0.5-0.1-0.8-0.2-0.9-0.4c3.7-0.2,7.4-0.4,11.3-0.5c0.3,0.1,0.7,0.2,1.1,0.1
		c0.3,0,0.5-0.1,0.8-0.2c2.5,0,5.1-0.1,7.8-0.1c6.3,0,12.8,0.2,19.6,0.5c1.8,0.1,3.6,0.2,5.5,0.3c0.2,0,0.4,0,0.7,0
		c1,0.1,2,0.1,3,0.2c1,0.1,2.7,0.2,4.2,0.3c0.7,0.1,1.4,0.1,1.9,0.2c0,0,0.1,0,0.2,0c0.5,0,1-0.2,1.2-0.6c0.2-0.3,0.6-0.7,1-1.2
		c0.5-0.6,0.4-1.9-1-2.1c-0.6-0.1-1.5-0.2-2.5-0.4c-1.8-0.3-4-0.6-5.3-0.8c-0.7-0.1-1.4-0.2-2.1-0.3c-0.2,0-0.4,0-0.6-0.1
		c-1.8-0.2-3.5-0.5-5.3-0.7c-5.1-0.6-10.1-1.1-14.9-1.5c-0.7-0.1-1.5-0.1-2.2-0.2c-1-0.1-2-0.2-2.9-0.2c-0.2,0-0.5,0-0.8,0
		c-0.9-0.1-1.7-0.1-2.6-0.2c-0.2,0-0.4,0-0.6,0c-0.3,0-0.7,0-1-0.1c-0.2,0-0.5,0-0.8,0c-0.9-0.1-1.7-0.1-2.5-0.1c-0.3,0-0.5,0-0.8,0
		c-2.2-0.1-4.4-0.2-6.6-0.2c-0.6,0-1.3,0-1.9,0c-1.1,0-2.2,0-3.3-0.1c0-0.7,0-1.4,0-2.1c0-0.8,0-1.5,0-2.1v-0.1c0-1.4,0-2.3,0-2.3
		c-0.1-3.2-0.3-6.4-0.7-9.5c-0.6-4.8-1.6-9.5-3.2-14c-1-2.9-2.4-5.7-4.4-8c-1.7-2-3.8-3.4-6.5-3.9c0-0.1,0-0.1,0-0.2
		c-1.1,0-2.1,0-3.2,0c0,0.1,0,0.1,0,0.2h0c-0.7,0-1.3,0.2-1.8,0.7c-0.5,0.4-0.6,1.2-0.2,1.8c0.3,0.5,0.9,0.7,1.5,0.4
		c0.3-0.1,0.5-0.3,0.7-0.5c1.3-1.3,2.8-1.2,4.2-0.5c1.5,0.7,2.8,1.8,3.8,3.1c1.1,1.5,1.8,3,2.5,4.7c1.4,3.8,2.3,7.8,2.6,11.8
		c0.2,3.2,0.3,6.5-0.4,9.7c-0.2,1-0.4,1.9-0.7,2.9c-0.4,0.8-1,2.2-1.8,3.9c-0.3,0.6-0.7,1.4-1,2.1c-0.3,0.6-0.6,1.1-0.9,1.7
		c-0.1,0.1-0.1,0.2-0.2,0.4c-7.7,0.1-15,0.6-21.7,1.2c-1.3,0.1-2.5,0.2-3.7,0.4c-4.1,0.4-8,0.9-11.7,1.5c-0.3,0.1-0.6,0.1-0.9,0.1
		c-3.8,0.6-7.5,1.3-10.9,2c-0.5,0.1-0.9,0.2-1.4,0.3c-4.1,0.9-8,1.8-11.5,2.8c-0.7,0.2-1.3,0.4-2,0.6c-6,1.8-11,3.6-14.9,5.4
		c-1.4,0.6-2.6,1.2-3.8,1.8c-0.5-0.5-1-1-1.5-1.5c-0.5-0.5-1-1.1-1.4-1.6c-1.9-2.3-3.3-4.6-3.6-6.6c0,0-2.1-4.9-3.5,0
		c0,0-9.6-18.1,4.7-32.9c0,0,7.4,8.5,7.9-2.1c0,0-7.7-9.6-21.5,8.8l-5.7,9.5c0,0-10.9,1.7-8.6,13.5
		C103.2,82.2,104.8,88.9,116.5,101.7z M214.5,129.3c0,3-0.5,8.1-0.4,11.2c0.1,3.9,0.4,7.8,0.9,11.7c0.3,2.9,0.5,5.8,0.8,8.7
		c0.2,2.2,0.4,4.3,0.6,6.5c0.1,0.7,0.1,1.3-0.1,2c-0.5-3.1-1-6.2-1.5-9.3c-0.5-3.3-0.9-6.7-1.4-10.1c-0.8-5.8-0.4-11.4-0.2-17.3
		c0-0.9,0.6-9.6,0.8-11.8c0.3-3.3,0.6-7.9,1.3-11.1c0.1-0.3,2.2-16.1,3.3-23.6c0,0,0.1,0,0.1,0C217.4,97.2,214.8,123.8,214.5,129.3z
		 M156.2,124.6c32.2,31.3,18.8,56,18.8,56c8.5-29.5-17.6-52.8-43.4-79.2c0.2-0.1,0.4-0.2,0.6-0.3C139,108.1,147.2,115.8,156.2,124.6
		z M120.4,47c-9.9,17-7.3,29.6,2.7,43.1c0.5,0.7,1,1.3,1.5,2c0.5,0.7,1.1,1.3,1.6,2c1,1.2,2,2.4,3.2,3.6c-0.3,0.1-0.5,0.3-0.7,0.4
		c-0.4-0.4-0.9-0.9-1.3-1.3c-0.5-0.5-0.9-1-1.4-1.5c0,0,0,0,0,0c-0.6-0.7-1.2-1.3-1.7-2c-0.6-0.7-1.1-1.3-1.6-2
		C102.8,65.9,120.4,47,120.4,47z"/>
	<path class="st1" d="M196.3,224.6l0-0.3c0.2,0.2,0.3,0.3,0.5,0.4c4.1,3.1,9.1,3.9,15.1,2.5l0.7-13.8c-2.2,0.7-9.8,2.6-9.3-5.2
		c0,0-0.1-9.2-4.5-5.2c0,0-2.8-4.3,1.5-10.2c4.3-5.9,4-8.2,2.6-9.4c0,0,5.3-15,1.4-19.2c0,0,0,0,0,0c-0.3-0.3-0.6-0.5-1-0.7
		c0,0,0.3,0.8,0.5,2.2c0.3,2.8,0,7.9-4.5,14.6c-1,1.5-2.1,2.9-3.1,4.4c-3.9,5.4-7.6,10.6-8.6,16.8c0,0,0,0,0,0
		c-0.5,3.2-0.3,6.6,1,10.5c1.3,3.9,2.9,7.1,4.9,9.6c0.1,0.2,0.2,0.3,0.4,0.5c-11.4,0.8-24.8,3.9-35.4,12.5c0,0-0.1,0-0.1,0
		c0,0,0,0,0.1,0c-4,3.3-7.6,7.4-10.5,12.4c-5.5,9.7-6.4,22.3-6.4,22.4l2.5-0.6c0.2-1.5,0.4-2.7,0.6-4.1
		C152,225.7,191.2,224.6,196.3,224.6z"/>
	<path class="st1" d="M77.9,201.6C77.9,201.6,77.9,201.6,77.9,201.6c2.2,22.4,23.2,26.1,34.8,26.4h0.1c4.5,0.1,7.5-0.3,7.5-0.3
		c23.1-1.4,35.6-15.6,36-16l-6,3.4l0,0l-5.2,2.9c-12.7,7-34.1,7.4-41.4,5.3c-4.9-1.4-6-6.2-6.2-9.3c0,0,0,0,0,0c0,0,0.1,0,0.1,0
		c1.8,0,3.3-1.5,3.3-3.3s-1.5-3.3-3.3-3.3s-3.3,1.5-3.3,3.3c0,0.6,0.2,1.2,0.5,1.7c-1.5,4.2,0.2,9.5,0.2,9.5
		c-7-4.2-6.8-10.9-6.1-14.4c0.2,0,0.4,0.1,0.6,0.1c1.8,0,3.3-1.5,3.3-3.3s-1.5-3.3-3.3-3.3c-1.8,0-3.3,1.5-3.3,3.3
		c0,0.9,0.4,1.8,1,2.3c0,0,0,0,0,0c-1.7,5.8,0,9.3,0,9.3c-4.9-3.2-6.4-10-6.9-14.5c0,0,0,0,0,0c1.2-0.5,2.1-1.6,2.1-3.1
		c0-1.8-1.5-3.3-3.3-3.3c-1.8,0-3.3,1.5-3.3,3.3C76.1,199.9,76.8,201.1,77.9,201.6z"/>
</g>
</svg>
